<svg width="400" height="14" viewBox="0 0 400 14" fill="none" xmlns="http://www.w3.org/2000/svg">
<line y1="8" x2="400" y2="8" stroke="#F5F5F5" stroke-width="2"/>
<rect width="20" height="14" transform="translate(191)" fill="white"/>
<path d="M199.028 10.063C198.446 10.063 197.909 9.928 197.417 9.658C196.931 9.382 196.544 9.001 196.256 8.515C195.974 8.023 195.833 7.471 195.833 6.859C195.833 6.247 195.974 5.698 196.256 5.212C196.544 4.726 196.931 4.348 197.417 4.078C197.909 3.802 198.446 3.664 199.028 3.664C199.616 3.664 200.153 3.802 200.639 4.078C201.131 4.348 201.518 4.726 201.8 5.212C202.082 5.698 202.223 6.247 202.223 6.859C202.223 7.471 202.082 8.023 201.8 8.515C201.518 9.001 201.131 9.382 200.639 9.658C200.153 9.928 199.616 10.063 199.028 10.063ZM199.028 9.172C199.442 9.172 199.811 9.079 200.135 8.893C200.459 8.701 200.711 8.431 200.891 8.083C201.077 7.729 201.17 7.321 201.17 6.859C201.17 6.397 201.077 5.992 200.891 5.644C200.711 5.296 200.459 5.029 200.135 4.843C199.811 4.657 199.442 4.564 199.028 4.564C198.614 4.564 198.245 4.657 197.921 4.843C197.597 5.029 197.342 5.296 197.156 5.644C196.976 5.992 196.886 6.397 196.886 6.859C196.886 7.321 196.976 7.729 197.156 8.083C197.342 8.431 197.597 8.701 197.921 8.893C198.245 9.079 198.614 9.172 199.028 9.172ZM204.259 5.761C204.409 5.509 204.607 5.314 204.853 5.176C205.105 5.032 205.402 4.96 205.744 4.96V6.022H205.483C205.081 6.022 204.775 6.124 204.565 6.328C204.361 6.532 204.259 6.886 204.259 7.39V10H203.233V5.041H204.259V5.761Z" fill="black"/>
</svg>
