<svg width="66" height="24" viewBox="0 0 66 24" fill="none" xmlns="http://www.w3.org/2000/svg">
<path d="M12 14.6666C11.4747 14.6666 11 14.8733 10.644 15.2046L5.94 12.4666C5.97333 12.3133 6 12.16 6 12C6 11.84 5.97333 11.6866 5.94 11.5333L10.64 8.79331C11 9.12665 11.4733 9.33331 12 9.33331C13.1067 9.33331 14 8.43998 14 7.33331C14 6.22665 13.1067 5.33331 12 5.33331C10.8933 5.33331 10 6.22665 10 7.33331C10 7.49331 10.0267 7.64665 10.06 7.79998L5.36 10.54C5 10.2066 4.52667 9.99998 4 9.99998C2.89333 9.99998 2 10.8933 2 12C2 13.1066 2.89333 14 4 14C4.52667 14 5 13.7933 5.36 13.46L10.0587 16.2053C10.0211 16.3563 10.0014 16.5111 10 16.6666C10 17.0622 10.1173 17.4489 10.3371 17.7778C10.5568 18.1067 10.8692 18.363 11.2346 18.5144C11.6001 18.6658 12.0022 18.7054 12.3902 18.6282C12.7781 18.551 13.1345 18.3606 13.4142 18.0809C13.6939 17.8012 13.8844 17.4448 13.9616 17.0568C14.0387 16.6689 13.9991 16.2667 13.8478 15.9013C13.6964 15.5358 13.44 15.2235 13.1111 15.0037C12.7822 14.7839 12.3956 14.6666 12 14.6666Z" fill="white"/>
<path d="M22.96 18.112C22.1813 18.112 21.4773 17.9787 20.848 17.712C20.2293 17.4453 19.7387 17.0613 19.376 16.56C19.0133 16.0587 18.8267 15.4667 18.816 14.784H21.216C21.248 15.2427 21.408 15.6053 21.696 15.872C21.9947 16.1387 22.4 16.272 22.912 16.272C23.4347 16.272 23.8453 16.1493 24.144 15.904C24.4427 15.648 24.592 15.3173 24.592 14.912C24.592 14.5813 24.4907 14.3093 24.288 14.096C24.0853 13.8827 23.8293 13.7173 23.52 13.6C23.2213 13.472 22.8053 13.3333 22.272 13.184C21.5467 12.9707 20.9547 12.7627 20.496 12.56C20.048 12.3467 19.6587 12.032 19.328 11.616C19.008 11.1893 18.848 10.624 18.848 9.92C18.848 9.25867 19.0133 8.68267 19.344 8.192C19.6747 7.70133 20.1387 7.328 20.736 7.072C21.3333 6.80533 22.016 6.672 22.784 6.672C23.936 6.672 24.8693 6.95467 25.584 7.52C26.3093 8.07467 26.7093 8.85333 26.784 9.856H24.32C24.2987 9.472 24.1333 9.15733 23.824 8.912C23.5253 8.656 23.1253 8.528 22.624 8.528C22.1867 8.528 21.8347 8.64 21.568 8.864C21.312 9.088 21.184 9.41333 21.184 9.84C21.184 10.1387 21.28 10.3893 21.472 10.592C21.6747 10.784 21.92 10.944 22.208 11.072C22.5067 11.1893 22.9227 11.328 23.456 11.488C24.1813 11.7013 24.7733 11.9147 25.232 12.128C25.6907 12.3413 26.0853 12.6613 26.416 13.088C26.7467 13.5147 26.912 14.0747 26.912 14.768C26.912 15.3653 26.7573 15.92 26.448 16.432C26.1387 16.944 25.6853 17.3547 25.088 17.664C24.4907 17.9627 23.7813 18.112 22.96 18.112ZM33.846 9.008C34.518 9.008 35.1153 9.15733 35.638 9.456C36.1607 9.744 36.566 10.176 36.854 10.752C37.1527 11.3173 37.302 12 37.302 12.8V18H35.062V13.104C35.062 12.4 34.886 11.8613 34.534 11.488C34.182 11.104 33.702 10.912 33.094 10.912C32.4753 10.912 31.9847 11.104 31.622 11.488C31.27 11.8613 31.094 12.4 31.094 13.104V18H28.854V6.16H31.094V10.24C31.382 9.856 31.766 9.55733 32.246 9.344C32.726 9.12 33.2593 9.008 33.846 9.008ZM38.8561 13.536C38.8561 12.64 39.0321 11.8453 39.3841 11.152C39.7468 10.4587 40.2321 9.92533 40.8401 9.552C41.4588 9.17867 42.1468 8.992 42.9041 8.992C43.5655 8.992 44.1415 9.12533 44.6321 9.392C45.1335 9.65867 45.5335 9.99467 45.8321 10.4V9.136H48.0881V18H45.8321V16.704C45.5441 17.12 45.1441 17.4667 44.6321 17.744C44.1308 18.0107 43.5495 18.144 42.8881 18.144C42.1415 18.144 41.4588 17.952 40.8401 17.568C40.2321 17.184 39.7468 16.6453 39.3841 15.952C39.0321 15.248 38.8561 14.4427 38.8561 13.536ZM45.8321 13.568C45.8321 13.024 45.7255 12.56 45.5121 12.176C45.2988 11.7813 45.0108 11.4827 44.6481 11.28C44.2855 11.0667 43.8961 10.96 43.4801 10.96C43.0641 10.96 42.6801 11.0613 42.3281 11.264C41.9761 11.4667 41.6881 11.7653 41.4641 12.16C41.2508 12.544 41.1441 13.0027 41.1441 13.536C41.1441 14.0693 41.2508 14.5387 41.4641 14.944C41.6881 15.3387 41.9761 15.6427 42.3281 15.856C42.6908 16.0693 43.0748 16.176 43.4801 16.176C43.8961 16.176 44.2855 16.0747 44.6481 15.872C45.0108 15.6587 45.2988 15.36 45.5121 14.976C45.7255 14.5813 45.8321 14.112 45.8321 13.568ZM52.5159 10.512C52.8039 10.0427 53.1772 9.67467 53.6359 9.408C54.1052 9.14133 54.6385 9.008 55.2359 9.008V11.36H54.6439C53.9399 11.36 53.4065 11.5253 53.0439 11.856C52.6919 12.1867 52.5159 12.7627 52.5159 13.584V18H50.2759V9.136H52.5159V10.512ZM64.9846 13.376C64.9846 13.696 64.9633 13.984 64.9206 14.24H58.4406C58.494 14.88 58.718 15.3813 59.1126 15.744C59.5073 16.1067 59.9926 16.288 60.5686 16.288C61.4006 16.288 61.9926 15.9307 62.3446 15.216H64.7606C64.5046 16.0693 64.014 16.7733 63.2886 17.328C62.5633 17.872 61.6726 18.144 60.6166 18.144C59.7633 18.144 58.9953 17.9573 58.3126 17.584C57.6406 17.2 57.1126 16.6613 56.7286 15.968C56.3553 15.2747 56.1686 14.4747 56.1686 13.568C56.1686 12.6507 56.3553 11.8453 56.7286 11.152C57.102 10.4587 57.6246 9.92533 58.2966 9.552C58.9686 9.17867 59.742 8.992 60.6166 8.992C61.4593 8.992 62.2113 9.17333 62.8726 9.536C63.5446 9.89867 64.062 10.416 64.4246 11.088C64.798 11.7493 64.9846 12.512 64.9846 13.376ZM62.6646 12.736C62.654 12.16 62.446 11.7013 62.0406 11.36C61.6353 11.008 61.1393 10.832 60.5526 10.832C59.998 10.832 59.5286 11.0027 59.1446 11.344C58.7713 11.6747 58.542 12.1387 58.4566 12.736H62.6646Z" fill="white"/>
</svg>
