<svg width="96" height="24" viewBox="0 0 96 24" fill="none" xmlns="http://www.w3.org/2000/svg">
<path d="M10.08 11L11.08 12L14.52 8.55L11 5L10 6L11.8 7.8H2V9.2H11.82L10.08 11ZM5.86 13L4.86 12L1.42 15.5L4.91 19L5.91 18L4.1 16.2H14V14.8H4.1L5.86 13Z" fill="white"/>
<path d="M18.56 12.4C18.56 11.3013 18.8053 10.32 19.296 9.456C19.7973 8.58133 20.4747 7.904 21.328 7.424C22.192 6.93333 23.1573 6.688 24.224 6.688C25.472 6.688 26.5653 7.008 27.504 7.648C28.4427 8.288 29.0987 9.17333 29.472 10.304H26.896C26.64 9.77067 26.2773 9.37067 25.808 9.104C25.3493 8.83733 24.816 8.704 24.208 8.704C23.5573 8.704 22.976 8.85867 22.464 9.168C21.9627 9.46667 21.568 9.89333 21.28 10.448C21.0027 11.0027 20.864 11.6533 20.864 12.4C20.864 13.136 21.0027 13.7867 21.28 14.352C21.568 14.9067 21.9627 15.3387 22.464 15.648C22.976 15.9467 23.5573 16.096 24.208 16.096C24.816 16.096 25.3493 15.9627 25.808 15.696C26.2773 15.4187 26.64 15.0133 26.896 14.48H29.472C29.0987 15.6213 28.4427 16.512 27.504 17.152C26.576 17.7813 25.4827 18.096 24.224 18.096C23.1573 18.096 22.192 17.856 21.328 17.376C20.4747 16.8853 19.7973 16.208 19.296 15.344C18.8053 14.48 18.56 13.4987 18.56 12.4ZM35.3213 18.144C34.4679 18.144 33.6999 17.9573 33.0173 17.584C32.3346 17.2 31.7959 16.6613 31.4013 15.968C31.0173 15.2747 30.8253 14.4747 30.8253 13.568C30.8253 12.6613 31.0226 11.8613 31.4173 11.168C31.8226 10.4747 32.3719 9.94133 33.0653 9.568C33.7586 9.184 34.5319 8.992 35.3853 8.992C36.2386 8.992 37.0119 9.184 37.7053 9.568C38.3986 9.94133 38.9426 10.4747 39.3373 11.168C39.7426 11.8613 39.9453 12.6613 39.9453 13.568C39.9453 14.4747 39.7373 15.2747 39.3212 15.968C38.9159 16.6613 38.3613 17.2 37.6573 17.584C36.9639 17.9573 36.1853 18.144 35.3213 18.144ZM35.3213 16.192C35.7266 16.192 36.1053 16.096 36.4573 15.904C36.8199 15.7013 37.1079 15.4027 37.3213 15.008C37.5346 14.6133 37.6413 14.1333 37.6413 13.568C37.6413 12.7253 37.4173 12.08 36.9693 11.632C36.5319 11.1733 35.9933 10.944 35.3533 10.944C34.7133 10.944 34.1746 11.1733 33.7373 11.632C33.3106 12.08 33.0973 12.7253 33.0973 13.568C33.0973 14.4107 33.3053 15.0613 33.7213 15.52C34.1479 15.968 34.6813 16.192 35.3213 16.192ZM52.5964 9.008C53.6844 9.008 54.559 9.344 55.2204 10.016C55.8924 10.6773 56.2284 11.6053 56.2284 12.8V18H53.9884V13.104C53.9884 12.4107 53.8124 11.8827 53.4604 11.52C53.1084 11.1467 52.6284 10.96 52.0204 10.96C51.4124 10.96 50.927 11.1467 50.5644 11.52C50.2124 11.8827 50.0364 12.4107 50.0364 13.104V18H47.7964V13.104C47.7964 12.4107 47.6204 11.8827 47.2684 11.52C46.9164 11.1467 46.4364 10.96 45.8284 10.96C45.2097 10.96 44.719 11.1467 44.3564 11.52C44.0044 11.8827 43.8284 12.4107 43.8284 13.104V18H41.5884V9.136H43.8284V10.208C44.1164 9.83467 44.4844 9.54133 44.9324 9.328C45.391 9.11467 45.8924 9.008 46.4364 9.008C47.1297 9.008 47.7484 9.15733 48.2924 9.456C48.8364 9.744 49.2577 10.16 49.5564 10.704C49.8444 10.192 50.2604 9.78133 50.8044 9.472C51.359 9.16267 51.9564 9.008 52.5964 9.008ZM60.594 10.416C60.882 10.0107 61.2767 9.67467 61.778 9.408C62.29 9.13067 62.8713 8.992 63.522 8.992C64.2793 8.992 64.962 9.17867 65.57 9.552C66.1887 9.92533 66.674 10.4587 67.026 11.152C67.3887 11.8347 67.57 12.6293 67.57 13.536C67.57 14.4427 67.3887 15.248 67.026 15.952C66.674 16.6453 66.1887 17.184 65.57 17.568C64.962 17.952 64.2793 18.144 63.522 18.144C62.8713 18.144 62.2953 18.0107 61.794 17.744C61.3033 17.4773 60.9033 17.1413 60.594 16.736V22.224H58.354V9.136H60.594V10.416ZM65.282 13.536C65.282 13.0027 65.17 12.544 64.946 12.16C64.7327 11.7653 64.4447 11.4667 64.082 11.264C63.73 11.0613 63.346 10.96 62.93 10.96C62.5247 10.96 62.1407 11.0667 61.778 11.28C61.426 11.4827 61.138 11.7813 60.914 12.176C60.7007 12.5707 60.594 13.0347 60.594 13.568C60.594 14.1013 60.7007 14.5653 60.914 14.96C61.138 15.3547 61.426 15.6587 61.778 15.872C62.1407 16.0747 62.5247 16.176 62.93 16.176C63.346 16.176 63.73 16.0693 64.082 15.856C64.4447 15.6427 64.7327 15.3387 64.946 14.944C65.17 14.5493 65.282 14.08 65.282 13.536ZM68.6217 13.536C68.6217 12.64 68.7977 11.8453 69.1497 11.152C69.5124 10.4587 69.9978 9.92533 70.6058 9.552C71.2244 9.17867 71.9124 8.992 72.6698 8.992C73.3311 8.992 73.9071 9.12533 74.3978 9.392C74.8991 9.65867 75.2991 9.99467 75.5978 10.4V9.136H77.8538V18H75.5978V16.704C75.3098 17.12 74.9098 17.4667 74.3978 17.744C73.8964 18.0107 73.3151 18.144 72.6538 18.144C71.9071 18.144 71.2244 17.952 70.6058 17.568C69.9978 17.184 69.5124 16.6453 69.1497 15.952C68.7977 15.248 68.6217 14.4427 68.6217 13.536ZM75.5978 13.568C75.5978 13.024 75.4911 12.56 75.2778 12.176C75.0644 11.7813 74.7764 11.4827 74.4138 11.28C74.0511 11.0667 73.6618 10.96 73.2458 10.96C72.8298 10.96 72.4458 11.0613 72.0938 11.264C71.7418 11.4667 71.4538 11.7653 71.2298 12.16C71.0164 12.544 70.9098 13.0027 70.9098 13.536C70.9098 14.0693 71.0164 14.5387 71.2298 14.944C71.4538 15.3387 71.7418 15.6427 72.0938 15.856C72.4564 16.0693 72.8404 16.176 73.2458 16.176C73.6618 16.176 74.0511 16.0747 74.4138 15.872C74.7764 15.6587 75.0644 15.36 75.2778 14.976C75.4911 14.5813 75.5978 14.112 75.5978 13.568ZM82.2815 10.512C82.5695 10.0427 82.9428 9.67467 83.4015 9.408C83.8708 9.14133 84.4042 9.008 85.0015 9.008V11.36H84.4095C83.7055 11.36 83.1722 11.5253 82.8095 11.856C82.4575 12.1867 82.2815 12.7627 82.2815 13.584V18H80.0415V9.136H82.2815V10.512ZM94.7503 13.376C94.7503 13.696 94.7289 13.984 94.6863 14.24H88.2063C88.2596 14.88 88.4836 15.3813 88.8783 15.744C89.2729 16.1067 89.7583 16.288 90.3343 16.288C91.1663 16.288 91.7583 15.9307 92.1103 15.216H94.5263C94.2703 16.0693 93.7796 16.7733 93.0543 17.328C92.3289 17.872 91.4383 18.144 90.3823 18.144C89.5289 18.144 88.7609 17.9573 88.0783 17.584C87.4063 17.2 86.8783 16.6613 86.4943 15.968C86.1209 15.2747 85.9342 14.4747 85.9342 13.568C85.9342 12.6507 86.1209 11.8453 86.4943 11.152C86.8676 10.4587 87.3903 9.92533 88.0623 9.552C88.7343 9.17867 89.5076 8.992 90.3823 8.992C91.2249 8.992 91.9769 9.17333 92.6383 9.536C93.3103 9.89867 93.8276 10.416 94.1903 11.088C94.5636 11.7493 94.7503 12.512 94.7503 13.376ZM92.4303 12.736C92.4196 12.16 92.2116 11.7013 91.8063 11.36C91.4009 11.008 90.9049 10.832 90.3183 10.832C89.7636 10.832 89.2943 11.0027 88.9103 11.344C88.5369 11.6747 88.3076 12.1387 88.2223 12.736H92.4303Z" fill="white"/>
</svg>
