<svg width="1437" height="270" viewBox="0 0 1437 270" fill="none" xmlns="http://www.w3.org/2000/svg">
<rect width="1440" height="270" transform="translate(-3)" fill="#FAF3EA"/>
<path d="M99.3546 108.516C98.0743 108.516 96.8741 108.861 95.839 109.462V106.758C95.839 105.787 95.0519 105 94.0812 105H65.9562C64.9853 105 64.1982 105.787 64.1982 106.758V109.483C63.1549 108.869 61.941 108.516 60.6454 108.516C56.7684 108.516 53.6142 111.67 53.6142 115.547C53.6142 118.504 54.4905 121.361 56.1484 123.81C58.9707 127.979 62.4511 129.061 65.331 130.213C66.9915 134.348 70.3495 137.625 74.5384 139.177L73.2422 147.422H72.9874C70.0796 147.422 67.714 149.788 67.714 152.695V161.484H65.9562C64.9854 161.484 64.1983 162.271 64.1983 163.242C64.1983 164.213 64.9854 165 65.9562 165H94.0812C95.0519 165 95.839 164.213 95.839 163.242C95.839 162.271 95.0519 161.484 94.0812 161.484H92.3233V152.695C92.3233 149.788 89.9577 147.422 87.0499 147.422H86.7951L85.499 139.177C89.694 137.623 93.0558 134.339 94.7138 130.195C97.4344 129.107 101 128.022 103.852 123.81C105.51 121.361 106.386 118.504 106.386 115.547C106.386 111.67 103.232 108.516 99.3546 108.516ZM64.1852 125.968C59.8992 124.254 57.1298 120.163 57.1298 115.547C57.1298 113.608 58.7069 112.031 60.6454 112.031C62.584 112.031 64.1611 113.608 64.1611 115.547C64.1611 115.671 64.1741 115.791 64.1983 115.907V124.336C64.1983 124.901 64.2287 125.459 64.2868 126.009L64.1852 125.968ZM88.8077 161.484H71.2296V157.969H88.8077V161.484ZM87.0499 150.938C88.0192 150.938 88.8077 151.726 88.8077 152.695V154.453H71.2296V152.695C71.2296 151.726 72.0181 150.938 72.9874 150.938C73.9411 150.938 84.8134 150.938 87.0499 150.938ZM76.8009 147.422L77.9641 140.023C78.6368 140.111 79.3224 140.156 80.0187 140.156C80.7149 140.156 81.4005 140.111 82.0732 140.023L83.2364 147.422H76.8009ZM92.3233 124.336C92.3233 131.121 86.8035 136.641 80.0187 136.641C73.2338 136.641 67.714 131.121 67.714 124.336V115.547H92.3233V124.336ZM92.3233 112.031H67.714V108.516H92.3233V112.031ZM95.8147 125.968L95.7522 125.993C95.8092 125.448 95.8388 124.896 95.8388 124.336V115.547C95.839 113.608 97.4161 112.031 99.3546 112.031C101.293 112.031 102.87 113.608 102.87 115.547C102.87 120.163 100.101 124.254 95.8147 125.968Z" fill="#242424"/>
<path d="M136.2 110.55V128H132.7V120.575H125.225V128H121.725V110.55H125.225V117.725H132.7V110.55H136.2ZM141.42 112.5C140.803 112.5 140.287 112.308 139.87 111.925C139.47 111.525 139.27 111.033 139.27 110.45C139.27 109.867 139.47 109.383 139.87 109C140.287 108.6 140.803 108.4 141.42 108.4C142.037 108.4 142.545 108.6 142.945 109C143.362 109.383 143.57 109.867 143.57 110.45C143.57 111.033 143.362 111.525 142.945 111.925C142.545 112.308 142.037 112.5 141.42 112.5ZM143.145 114.15V128H139.645V114.15H143.145ZM152.028 113.925C153.061 113.925 153.97 114.133 154.753 114.55C155.536 114.95 156.153 115.475 156.603 116.125V114.15H160.128V128.1C160.128 129.383 159.87 130.525 159.353 131.525C158.836 132.542 158.061 133.342 157.028 133.925C155.995 134.525 154.745 134.825 153.278 134.825C151.311 134.825 149.695 134.367 148.428 133.45C147.178 132.533 146.47 131.283 146.303 129.7H149.778C149.961 130.333 150.353 130.833 150.953 131.2C151.57 131.583 152.311 131.775 153.178 131.775C154.195 131.775 155.02 131.467 155.653 130.85C156.286 130.25 156.603 129.333 156.603 128.1V125.95C156.153 126.6 155.528 127.142 154.728 127.575C153.945 128.008 153.045 128.225 152.028 128.225C150.861 128.225 149.795 127.925 148.828 127.325C147.861 126.725 147.095 125.883 146.528 124.8C145.978 123.7 145.703 122.442 145.703 121.025C145.703 119.625 145.978 118.383 146.528 117.3C147.095 116.217 147.853 115.383 148.803 114.8C149.77 114.217 150.845 113.925 152.028 113.925ZM156.603 121.075C156.603 120.225 156.436 119.5 156.103 118.9C155.77 118.283 155.32 117.817 154.753 117.5C154.186 117.167 153.578 117 152.928 117C152.278 117 151.678 117.158 151.128 117.475C150.578 117.792 150.128 118.258 149.778 118.875C149.445 119.475 149.278 120.192 149.278 121.025C149.278 121.858 149.445 122.592 149.778 123.225C150.128 123.842 150.578 124.317 151.128 124.65C151.695 124.983 152.295 125.15 152.928 125.15C153.578 125.15 154.186 124.992 154.753 124.675C155.32 124.342 155.77 123.875 156.103 123.275C156.436 122.658 156.603 121.925 156.603 121.075ZM171.346 113.95C172.396 113.95 173.33 114.183 174.146 114.65C174.963 115.1 175.596 115.775 176.046 116.675C176.513 117.558 176.746 118.625 176.746 119.875V128H173.246V120.35C173.246 119.25 172.971 118.408 172.421 117.825C171.871 117.225 171.121 116.925 170.171 116.925C169.205 116.925 168.438 117.225 167.871 117.825C167.321 118.408 167.046 119.25 167.046 120.35V128H163.546V109.5H167.046V115.875C167.496 115.275 168.096 114.808 168.846 114.475C169.596 114.125 170.43 113.95 171.346 113.95ZM199.032 131.075L196.382 127.9C195.648 128.083 194.898 128.175 194.132 128.175C192.498 128.175 190.998 127.792 189.632 127.025C188.265 126.258 187.182 125.2 186.382 123.85C185.582 122.483 185.182 120.942 185.182 119.225C185.182 117.525 185.582 116 186.382 114.65C187.182 113.283 188.265 112.217 189.632 111.45C190.998 110.683 192.498 110.3 194.132 110.3C195.782 110.3 197.282 110.683 198.632 111.45C199.998 112.217 201.073 113.283 201.857 114.65C202.657 116 203.057 117.525 203.057 119.225C203.057 120.775 202.723 122.192 202.057 123.475C201.407 124.742 200.515 125.775 199.382 126.575L203.382 131.075H199.032ZM188.782 119.225C188.782 120.392 189.007 121.417 189.457 122.3C189.907 123.183 190.532 123.867 191.332 124.35C192.148 124.817 193.082 125.05 194.132 125.05C195.182 125.05 196.107 124.817 196.907 124.35C197.707 123.867 198.332 123.183 198.782 122.3C199.232 121.417 199.457 120.392 199.457 119.225C199.457 118.058 199.232 117.042 198.782 116.175C198.332 115.292 197.707 114.617 196.907 114.15C196.107 113.683 195.182 113.45 194.132 113.45C193.082 113.45 192.148 113.683 191.332 114.15C190.532 114.617 189.907 115.292 189.457 116.175C189.007 117.042 188.782 118.058 188.782 119.225ZM218.784 114.15V128H215.259V126.25C214.809 126.85 214.218 127.325 213.484 127.675C212.768 128.008 211.984 128.175 211.134 128.175C210.051 128.175 209.093 127.95 208.259 127.5C207.426 127.033 206.768 126.358 206.284 125.475C205.818 124.575 205.584 123.508 205.584 122.275V114.15H209.084V121.775C209.084 122.875 209.359 123.725 209.909 124.325C210.459 124.908 211.209 125.2 212.159 125.2C213.126 125.2 213.884 124.908 214.434 124.325C214.984 123.725 215.259 122.875 215.259 121.775V114.15H218.784ZM221.338 121.025C221.338 119.625 221.613 118.383 222.163 117.3C222.729 116.217 223.488 115.383 224.438 114.8C225.404 114.217 226.479 113.925 227.663 113.925C228.696 113.925 229.596 114.133 230.363 114.55C231.146 114.967 231.771 115.492 232.238 116.125V114.15H235.763V128H232.238V125.975C231.788 126.625 231.163 127.167 230.363 127.6C229.579 128.017 228.671 128.225 227.638 128.225C226.471 128.225 225.404 127.925 224.438 127.325C223.488 126.725 222.729 125.883 222.163 124.8C221.613 123.7 221.338 122.442 221.338 121.025ZM232.238 121.075C232.238 120.225 232.071 119.5 231.738 118.9C231.404 118.283 230.954 117.817 230.388 117.5C229.821 117.167 229.213 117 228.563 117C227.913 117 227.313 117.158 226.763 117.475C226.213 117.792 225.763 118.258 225.413 118.875C225.079 119.475 224.913 120.192 224.913 121.025C224.913 121.858 225.079 122.592 225.413 123.225C225.763 123.842 226.213 124.317 226.763 124.65C227.329 124.983 227.929 125.15 228.563 125.15C229.213 125.15 229.821 124.992 230.388 124.675C230.954 124.342 231.404 123.875 231.738 123.275C232.071 122.658 232.238 121.925 232.238 121.075ZM242.681 109.5V128H239.181V109.5H242.681ZM247.914 112.5C247.297 112.5 246.781 112.308 246.364 111.925C245.964 111.525 245.764 111.033 245.764 110.45C245.764 109.867 245.964 109.383 246.364 109C246.781 108.6 247.297 108.4 247.914 108.4C248.531 108.4 249.039 108.6 249.439 109C249.856 109.383 250.064 109.867 250.064 110.45C250.064 111.033 249.856 111.525 249.439 111.925C249.039 112.308 248.531 112.5 247.914 112.5ZM249.639 114.15V128H246.139V114.15H249.639ZM257.172 117.025V123.725C257.172 124.192 257.28 124.533 257.497 124.75C257.73 124.95 258.114 125.05 258.647 125.05H260.272V128H258.072C255.122 128 253.647 126.567 253.647 123.7V117.025H251.997V114.15H253.647V110.725H257.172V114.15H260.272V117.025H257.172ZM276.039 114.15L267.464 134.55H263.739L266.739 127.65L261.189 114.15H265.114L268.689 123.825L272.314 114.15H276.039Z" fill="#242424"/>
<path d="M120.74 156.48C120.74 155.347 120.967 154.353 121.42 153.5C121.887 152.633 122.527 151.967 123.34 151.5C124.153 151.033 125.087 150.8 126.14 150.8C127.473 150.8 128.573 151.12 129.44 151.76C130.32 152.387 130.913 153.287 131.22 154.46H128.76C128.56 153.913 128.24 153.487 127.8 153.18C127.36 152.873 126.807 152.72 126.14 152.72C125.207 152.72 124.46 153.053 123.9 153.72C123.353 154.373 123.08 155.293 123.08 156.48C123.08 157.667 123.353 158.593 123.9 159.26C124.46 159.927 125.207 160.26 126.14 160.26C127.46 160.26 128.333 159.68 128.76 158.52H131.22C130.9 159.64 130.3 160.533 129.42 161.2C128.54 161.853 127.447 162.18 126.14 162.18C125.087 162.18 124.153 161.947 123.34 161.48C122.527 161 121.887 160.333 121.42 159.48C120.967 158.613 120.74 157.613 120.74 156.48ZM135.772 152.58C136.106 152.02 136.546 151.587 137.092 151.28C137.652 150.96 138.312 150.8 139.072 150.8V153.16H138.492C137.599 153.16 136.919 153.387 136.452 153.84C135.999 154.293 135.772 155.08 135.772 156.2V162H133.492V150.98H135.772V152.58ZM140.408 156.44C140.408 155.333 140.635 154.353 141.088 153.5C141.555 152.647 142.181 151.987 142.968 151.52C143.768 151.04 144.648 150.8 145.608 150.8C146.475 150.8 147.228 150.973 147.868 151.32C148.521 151.653 149.041 152.073 149.428 152.58V150.98H151.728V162H149.428V160.36C149.041 160.88 148.515 161.313 147.848 161.66C147.181 162.007 146.421 162.18 145.568 162.18C144.621 162.18 143.755 161.94 142.968 161.46C142.181 160.967 141.555 160.287 141.088 159.42C140.635 158.54 140.408 157.547 140.408 156.44ZM149.428 156.48C149.428 155.72 149.268 155.06 148.948 154.5C148.641 153.94 148.235 153.513 147.728 153.22C147.221 152.927 146.675 152.78 146.088 152.78C145.501 152.78 144.955 152.927 144.448 153.22C143.941 153.5 143.528 153.92 143.208 154.48C142.901 155.027 142.748 155.68 142.748 156.44C142.748 157.2 142.901 157.867 143.208 158.44C143.528 159.013 143.941 159.453 144.448 159.76C144.968 160.053 145.515 160.2 146.088 160.2C146.675 160.2 147.221 160.053 147.728 159.76C148.235 159.467 148.641 159.04 148.948 158.48C149.268 157.907 149.428 157.24 149.428 156.48ZM159.343 152.84H157.303V162H155.003V152.84H153.703V150.98H155.003V150.2C155.003 148.933 155.336 148.013 156.003 147.44C156.683 146.853 157.743 146.56 159.183 146.56V148.46C158.489 148.46 158.003 148.593 157.723 148.86C157.443 149.113 157.303 149.56 157.303 150.2V150.98H159.343V152.84ZM164.023 152.84V158.94C164.023 159.353 164.117 159.653 164.303 159.84C164.503 160.013 164.837 160.1 165.303 160.1H166.703V162H164.903C163.877 162 163.09 161.76 162.543 161.28C161.997 160.8 161.723 160.02 161.723 158.94V152.84H160.423V150.98H161.723V148.24H164.023V150.98H166.703V152.84H164.023ZM178.905 156.22C178.905 156.633 178.878 157.007 178.825 157.34H170.405C170.471 158.22 170.798 158.927 171.385 159.46C171.971 159.993 172.691 160.26 173.545 160.26C174.771 160.26 175.638 159.747 176.145 158.72H178.605C178.271 159.733 177.665 160.567 176.785 161.22C175.918 161.86 174.838 162.18 173.545 162.18C172.491 162.18 171.545 161.947 170.705 161.48C169.878 161 169.225 160.333 168.745 159.48C168.278 158.613 168.045 157.613 168.045 156.48C168.045 155.347 168.271 154.353 168.725 153.5C169.191 152.633 169.838 151.967 170.665 151.5C171.505 151.033 172.465 150.8 173.545 150.8C174.585 150.8 175.511 151.027 176.325 151.48C177.138 151.933 177.771 152.573 178.225 153.4C178.678 154.213 178.905 155.153 178.905 156.22ZM176.525 155.5C176.511 154.66 176.211 153.987 175.625 153.48C175.038 152.973 174.311 152.72 173.445 152.72C172.658 152.72 171.985 152.973 171.425 153.48C170.865 153.973 170.531 154.647 170.425 155.5H176.525ZM180.388 156.44C180.388 155.333 180.615 154.353 181.068 153.5C181.535 152.647 182.162 151.987 182.948 151.52C183.748 151.04 184.635 150.8 185.608 150.8C186.328 150.8 187.035 150.96 187.728 151.28C188.435 151.587 188.995 152 189.408 152.52V147.2H191.708V162H189.408V160.34C189.035 160.873 188.515 161.313 187.848 161.66C187.195 162.007 186.442 162.18 185.588 162.18C184.628 162.18 183.748 161.94 182.948 161.46C182.162 160.967 181.535 160.287 181.068 159.42C180.615 158.54 180.388 157.547 180.388 156.44ZM189.408 156.48C189.408 155.72 189.248 155.06 188.928 154.5C188.622 153.94 188.215 153.513 187.708 153.22C187.202 152.927 186.655 152.78 186.068 152.78C185.482 152.78 184.935 152.927 184.428 153.22C183.922 153.5 183.508 153.92 183.188 154.48C182.882 155.027 182.728 155.68 182.728 156.44C182.728 157.2 182.882 157.867 183.188 158.44C183.508 159.013 183.922 159.453 184.428 159.76C184.948 160.053 185.495 160.2 186.068 160.2C186.655 160.2 187.202 160.053 187.708 159.76C188.215 159.467 188.622 159.04 188.928 158.48C189.248 157.907 189.408 157.24 189.408 156.48ZM204.518 152.84H202.478V162H200.178V152.84H198.878V150.98H200.178V150.2C200.178 148.933 200.512 148.013 201.178 147.44C201.858 146.853 202.918 146.56 204.358 146.56V148.46C203.665 148.46 203.178 148.593 202.898 148.86C202.618 149.113 202.478 149.56 202.478 150.2V150.98H204.518V152.84ZM208.819 152.58C209.152 152.02 209.592 151.587 210.139 151.28C210.699 150.96 211.359 150.8 212.119 150.8V153.16H211.539C210.646 153.16 209.966 153.387 209.499 153.84C209.046 154.293 208.819 155.08 208.819 156.2V162H206.539V150.98H208.819V152.58ZM218.995 162.18C217.955 162.18 217.015 161.947 216.175 161.48C215.335 161 214.675 160.333 214.195 159.48C213.715 158.613 213.475 157.613 213.475 156.48C213.475 155.36 213.722 154.367 214.215 153.5C214.708 152.633 215.382 151.967 216.235 151.5C217.088 151.033 218.042 150.8 219.095 150.8C220.148 150.8 221.102 151.033 221.955 151.5C222.808 151.967 223.482 152.633 223.975 153.5C224.468 154.367 224.715 155.36 224.715 156.48C224.715 157.6 224.462 158.593 223.955 159.46C223.448 160.327 222.755 161 221.875 161.48C221.008 161.947 220.048 162.18 218.995 162.18ZM218.995 160.2C219.582 160.2 220.128 160.06 220.635 159.78C221.155 159.5 221.575 159.08 221.895 158.52C222.215 157.96 222.375 157.28 222.375 156.48C222.375 155.68 222.222 155.007 221.915 154.46C221.608 153.9 221.202 153.48 220.695 153.2C220.188 152.92 219.642 152.78 219.055 152.78C218.468 152.78 217.922 152.92 217.415 153.2C216.922 153.48 216.528 153.9 216.235 154.46C215.942 155.007 215.795 155.68 215.795 156.48C215.795 157.667 216.095 158.587 216.695 159.24C217.308 159.88 218.075 160.2 218.995 160.2ZM240.309 150.8C241.175 150.8 241.949 150.98 242.629 151.34C243.322 151.7 243.862 152.233 244.249 152.94C244.649 153.647 244.849 154.5 244.849 155.5V162H242.589V155.84C242.589 154.853 242.342 154.1 241.849 153.58C241.355 153.047 240.682 152.78 239.829 152.78C238.975 152.78 238.295 153.047 237.789 153.58C237.295 154.1 237.049 154.853 237.049 155.84V162H234.789V155.84C234.789 154.853 234.542 154.1 234.049 153.58C233.555 153.047 232.882 152.78 232.029 152.78C231.175 152.78 230.495 153.047 229.989 153.58C229.495 154.1 229.249 154.853 229.249 155.84V162H226.969V150.98H229.249V152.24C229.622 151.787 230.095 151.433 230.669 151.18C231.242 150.927 231.855 150.8 232.509 150.8C233.389 150.8 234.175 150.987 234.869 151.36C235.562 151.733 236.095 152.273 236.469 152.98C236.802 152.313 237.322 151.787 238.029 151.4C238.735 151 239.495 150.8 240.309 150.8ZM255.605 152.84V158.94C255.605 159.353 255.699 159.653 255.885 159.84C256.085 160.013 256.419 160.1 256.885 160.1H258.285V162H256.485C255.459 162 254.672 161.76 254.125 161.28C253.579 160.8 253.305 160.02 253.305 158.94V152.84H252.005V150.98H253.305V148.24H255.605V150.98H258.285V152.84H255.605ZM265.167 162.18C264.127 162.18 263.187 161.947 262.347 161.48C261.507 161 260.847 160.333 260.367 159.48C259.887 158.613 259.647 157.613 259.647 156.48C259.647 155.36 259.893 154.367 260.387 153.5C260.88 152.633 261.553 151.967 262.407 151.5C263.26 151.033 264.213 150.8 265.267 150.8C266.32 150.8 267.273 151.033 268.127 151.5C268.98 151.967 269.653 152.633 270.147 153.5C270.64 154.367 270.887 155.36 270.887 156.48C270.887 157.6 270.633 158.593 270.127 159.46C269.62 160.327 268.927 161 268.047 161.48C267.18 161.947 266.22 162.18 265.167 162.18ZM265.167 160.2C265.753 160.2 266.3 160.06 266.807 159.78C267.327 159.5 267.747 159.08 268.067 158.52C268.387 157.96 268.547 157.28 268.547 156.48C268.547 155.68 268.393 155.007 268.087 154.46C267.78 153.9 267.373 153.48 266.867 153.2C266.36 152.92 265.813 152.78 265.227 152.78C264.64 152.78 264.093 152.92 263.587 153.2C263.093 153.48 262.7 153.9 262.407 154.46C262.113 155.007 261.967 155.68 261.967 156.48C261.967 157.667 262.267 158.587 262.867 159.24C263.48 159.88 264.247 160.2 265.167 160.2ZM275.421 152.6C275.807 152.093 276.334 151.667 277.001 151.32C277.667 150.973 278.421 150.8 279.261 150.8C280.221 150.8 281.094 151.04 281.881 151.52C282.681 151.987 283.307 152.647 283.761 153.5C284.214 154.353 284.441 155.333 284.441 156.44C284.441 157.547 284.214 158.54 283.761 159.42C283.307 160.287 282.681 160.967 281.881 161.46C281.094 161.94 280.221 162.18 279.261 162.18C278.421 162.18 277.674 162.013 277.021 161.68C276.367 161.333 275.834 160.907 275.421 160.4V167.24H273.141V150.98H275.421V152.6ZM282.121 156.44C282.121 155.68 281.961 155.027 281.641 154.48C281.334 153.92 280.921 153.5 280.401 153.22C279.894 152.927 279.347 152.78 278.761 152.78C278.187 152.78 277.641 152.927 277.121 153.22C276.614 153.513 276.201 153.94 275.881 154.5C275.574 155.06 275.421 155.72 275.421 156.48C275.421 157.24 275.574 157.907 275.881 158.48C276.201 159.04 276.614 159.467 277.121 159.76C277.641 160.053 278.187 160.2 278.761 160.2C279.347 160.2 279.894 160.053 280.401 159.76C280.921 159.453 281.334 159.013 281.641 158.44C281.961 157.867 282.121 157.2 282.121 156.44ZM305.231 150.8C306.097 150.8 306.871 150.98 307.551 151.34C308.244 151.7 308.784 152.233 309.171 152.94C309.571 153.647 309.771 154.5 309.771 155.5V162H307.511V155.84C307.511 154.853 307.264 154.1 306.771 153.58C306.277 153.047 305.604 152.78 304.751 152.78C303.897 152.78 303.217 153.047 302.711 153.58C302.217 154.1 301.971 154.853 301.971 155.84V162H299.711V155.84C299.711 154.853 299.464 154.1 298.971 153.58C298.477 153.047 297.804 152.78 296.951 152.78C296.097 152.78 295.417 153.047 294.911 153.58C294.417 154.1 294.171 154.853 294.171 155.84V162H291.891V150.98H294.171V152.24C294.544 151.787 295.017 151.433 295.591 151.18C296.164 150.927 296.777 150.8 297.431 150.8C298.311 150.8 299.097 150.987 299.791 151.36C300.484 151.733 301.017 152.273 301.391 152.98C301.724 152.313 302.244 151.787 302.951 151.4C303.657 151 304.417 150.8 305.231 150.8ZM311.912 156.44C311.912 155.333 312.139 154.353 312.592 153.5C313.059 152.647 313.685 151.987 314.472 151.52C315.272 151.04 316.152 150.8 317.112 150.8C317.979 150.8 318.732 150.973 319.372 151.32C320.025 151.653 320.545 152.073 320.932 152.58V150.98H323.232V162H320.932V160.36C320.545 160.88 320.019 161.313 319.352 161.66C318.685 162.007 317.925 162.18 317.072 162.18C316.125 162.18 315.259 161.94 314.472 161.46C313.685 160.967 313.059 160.287 312.592 159.42C312.139 158.54 311.912 157.547 311.912 156.44ZM320.932 156.48C320.932 155.72 320.772 155.06 320.452 154.5C320.145 153.94 319.739 153.513 319.232 153.22C318.725 152.927 318.179 152.78 317.592 152.78C317.005 152.78 316.459 152.927 315.952 153.22C315.445 153.5 315.032 153.92 314.712 154.48C314.405 155.027 314.252 155.68 314.252 156.44C314.252 157.2 314.405 157.867 314.712 158.44C315.032 159.013 315.445 159.453 315.952 159.76C316.472 160.053 317.019 160.2 317.592 160.2C318.179 160.2 318.725 160.053 319.232 159.76C319.739 159.467 320.145 159.04 320.452 158.48C320.772 157.907 320.932 157.24 320.932 156.48ZM328.887 152.84V158.94C328.887 159.353 328.98 159.653 329.167 159.84C329.367 160.013 329.7 160.1 330.167 160.1H331.567V162H329.767C328.74 162 327.953 161.76 327.407 161.28C326.86 160.8 326.587 160.02 326.587 158.94V152.84H325.287V150.98H326.587V148.24H328.887V150.98H331.567V152.84H328.887ZM343.768 156.22C343.768 156.633 343.741 157.007 343.688 157.34H335.268C335.335 158.22 335.661 158.927 336.248 159.46C336.835 159.993 337.555 160.26 338.408 160.26C339.635 160.26 340.501 159.747 341.008 158.72H343.468C343.135 159.733 342.528 160.567 341.648 161.22C340.781 161.86 339.701 162.18 338.408 162.18C337.355 162.18 336.408 161.947 335.568 161.48C334.741 161 334.088 160.333 333.608 159.48C333.141 158.613 332.908 157.613 332.908 156.48C332.908 155.347 333.135 154.353 333.588 153.5C334.055 152.633 334.701 151.967 335.528 151.5C336.368 151.033 337.328 150.8 338.408 150.8C339.448 150.8 340.375 151.027 341.188 151.48C342.001 151.933 342.635 152.573 343.088 153.4C343.541 154.213 343.768 155.153 343.768 156.22ZM341.388 155.5C341.375 154.66 341.075 153.987 340.488 153.48C339.901 152.973 339.175 152.72 338.308 152.72C337.521 152.72 336.848 152.973 336.288 153.48C335.728 153.973 335.395 154.647 335.288 155.5H341.388ZM348.292 152.58C348.625 152.02 349.065 151.587 349.612 151.28C350.172 150.96 350.832 150.8 351.592 150.8V153.16H351.012C350.118 153.16 349.438 153.387 348.972 153.84C348.518 154.293 348.292 155.08 348.292 156.2V162H346.012V150.98H348.292V152.58ZM354.848 149.52C354.434 149.52 354.088 149.38 353.808 149.1C353.528 148.82 353.388 148.473 353.388 148.06C353.388 147.647 353.528 147.3 353.808 147.02C354.088 146.74 354.434 146.6 354.848 146.6C355.248 146.6 355.588 146.74 355.868 147.02C356.148 147.3 356.288 147.647 356.288 148.06C356.288 148.473 356.148 148.82 355.868 149.1C355.588 149.38 355.248 149.52 354.848 149.52ZM355.968 150.98V162H353.688V150.98H355.968ZM358.201 156.44C358.201 155.333 358.428 154.353 358.881 153.5C359.348 152.647 359.974 151.987 360.761 151.52C361.561 151.04 362.441 150.8 363.401 150.8C364.268 150.8 365.021 150.973 365.661 151.32C366.314 151.653 366.834 152.073 367.221 152.58V150.98H369.521V162H367.221V160.36C366.834 160.88 366.308 161.313 365.641 161.66C364.974 162.007 364.214 162.18 363.361 162.18C362.414 162.18 361.548 161.94 360.761 161.46C359.974 160.967 359.348 160.287 358.881 159.42C358.428 158.54 358.201 157.547 358.201 156.44ZM367.221 156.48C367.221 155.72 367.061 155.06 366.741 154.5C366.434 153.94 366.028 153.513 365.521 153.22C365.014 152.927 364.468 152.78 363.881 152.78C363.294 152.78 362.748 152.927 362.241 153.22C361.734 153.5 361.321 153.92 361.001 154.48C360.694 155.027 360.541 155.68 360.541 156.44C360.541 157.2 360.694 157.867 361.001 158.44C361.321 159.013 361.734 159.453 362.241 159.76C362.761 160.053 363.308 160.2 363.881 160.2C364.468 160.2 365.014 160.053 365.521 159.76C366.028 159.467 366.434 159.04 366.741 158.48C367.061 157.907 367.221 157.24 367.221 156.48ZM374.796 147.2V162H372.516V147.2H374.796ZM381.789 162.18C380.922 162.18 380.142 162.027 379.449 161.72C378.769 161.4 378.229 160.973 377.829 160.44C377.429 159.893 377.216 159.287 377.189 158.62H379.549C379.589 159.087 379.809 159.48 380.209 159.8C380.622 160.107 381.136 160.26 381.749 160.26C382.389 160.26 382.882 160.14 383.229 159.9C383.589 159.647 383.769 159.327 383.769 158.94C383.769 158.527 383.569 158.22 383.169 158.02C382.782 157.82 382.162 157.6 381.309 157.36C380.482 157.133 379.809 156.913 379.289 156.7C378.769 156.487 378.316 156.16 377.929 155.72C377.556 155.28 377.369 154.7 377.369 153.98C377.369 153.393 377.542 152.86 377.889 152.38C378.236 151.887 378.729 151.5 379.369 151.22C380.022 150.94 380.769 150.8 381.609 150.8C382.862 150.8 383.869 151.12 384.629 151.76C385.402 152.387 385.816 153.247 385.869 154.34H383.589C383.549 153.847 383.349 153.453 382.989 153.16C382.629 152.867 382.142 152.72 381.529 152.72C380.929 152.72 380.469 152.833 380.149 153.06C379.829 153.287 379.669 153.587 379.669 153.96C379.669 154.253 379.776 154.5 379.989 154.7C380.202 154.9 380.462 155.06 380.769 155.18C381.076 155.287 381.529 155.427 382.129 155.6C382.929 155.813 383.582 156.033 384.089 156.26C384.609 156.473 385.056 156.793 385.429 157.22C385.802 157.647 385.996 158.213 386.009 158.92C386.009 159.547 385.836 160.107 385.489 160.6C385.142 161.093 384.649 161.48 384.009 161.76C383.382 162.04 382.642 162.18 381.789 162.18Z" fill="#898989"/>
<g clip-path="url(#clip0_0_188)">
<path d="M499.119 126.261C498.328 123.81 498.665 120.13 496.607 117.288C494.533 114.424 490.926 113.61 488.889 112.121C486.874 110.647 484.999 107.439 481.609 106.333C478.314 105.258 474.945 106.717 472.333 106.717C469.722 106.717 466.353 105.257 463.058 106.333C459.668 107.439 457.792 110.647 455.778 112.12C453.743 113.608 450.133 114.424 448.06 117.288C446.004 120.127 446.338 123.815 445.547 126.261C444.795 128.589 442.333 131.382 442.333 135C442.333 138.62 444.792 141.403 445.547 143.739C446.339 146.191 446.002 149.871 448.059 152.712C450.133 155.576 453.74 156.39 455.777 157.88C457.792 159.354 459.668 162.561 463.058 163.667C466.35 164.742 469.724 163.284 472.333 163.284C474.939 163.284 478.321 164.74 481.609 163.668C484.999 162.562 486.874 159.354 488.889 157.88C490.924 156.392 494.533 155.576 496.607 152.713C498.663 149.873 498.329 146.185 499.119 143.739C499.871 141.411 502.333 138.618 502.333 135C502.333 131.38 499.875 128.598 499.119 126.261ZM494.659 142.298C493.736 145.154 493.978 148.351 492.811 149.963C491.628 151.596 488.52 152.342 486.122 154.096C483.75 155.831 482.088 158.58 480.155 159.211C478.326 159.808 475.345 158.596 472.333 158.596C469.3 158.596 466.35 159.811 464.512 159.211C462.579 158.58 460.919 155.833 458.545 154.096C456.161 152.353 453.035 151.591 451.856 149.963C450.692 148.356 450.925 145.137 450.008 142.298C449.109 139.516 447.021 137.107 447.021 135C447.021 132.891 449.107 130.49 450.008 127.702C450.93 124.846 450.689 121.649 451.856 120.037C453.038 118.405 456.148 117.657 458.545 115.904C460.924 114.164 462.576 111.421 464.512 110.789C466.339 110.193 469.33 111.404 472.333 111.404C475.372 111.404 478.315 110.189 480.155 110.789C482.088 111.42 483.749 114.169 486.122 115.904C488.506 117.648 491.631 118.409 492.811 120.038C493.974 121.644 493.741 124.86 494.659 127.702V127.702C495.558 130.484 497.646 132.893 497.646 135C497.646 137.109 495.56 139.51 494.659 142.298ZM483.131 127.477C484.047 128.393 484.047 129.877 483.131 130.792L471.4 142.523C470.485 143.438 469.001 143.438 468.086 142.523L461.535 135.973C460.62 135.058 460.62 133.574 461.535 132.658C462.451 131.743 463.935 131.743 464.85 132.658L469.743 137.551L479.817 127.477C480.732 126.562 482.216 126.562 483.131 127.477Z" fill="#242424"/>
</g>
<path d="M537.383 110.55L532.508 128H528.383L525.108 115.575L521.683 128L517.583 128.025L512.883 110.55H516.633L519.708 124.1L523.258 110.55H527.158L530.508 124.025L533.608 110.55H537.383ZM538.769 121.025C538.769 119.625 539.044 118.383 539.594 117.3C540.16 116.217 540.919 115.383 541.869 114.8C542.835 114.217 543.91 113.925 545.094 113.925C546.127 113.925 547.027 114.133 547.794 114.55C548.577 114.967 549.202 115.492 549.669 116.125V114.15H553.194V128H549.669V125.975C549.219 126.625 548.594 127.167 547.794 127.6C547.01 128.017 546.102 128.225 545.069 128.225C543.902 128.225 542.835 127.925 541.869 127.325C540.919 126.725 540.16 125.883 539.594 124.8C539.044 123.7 538.769 122.442 538.769 121.025ZM549.669 121.075C549.669 120.225 549.502 119.5 549.169 118.9C548.835 118.283 548.385 117.817 547.819 117.5C547.252 117.167 546.644 117 545.994 117C545.344 117 544.744 117.158 544.194 117.475C543.644 117.792 543.194 118.258 542.844 118.875C542.51 119.475 542.344 120.192 542.344 121.025C542.344 121.858 542.51 122.592 542.844 123.225C543.194 123.842 543.644 124.317 544.194 124.65C544.76 124.983 545.36 125.15 545.994 125.15C546.644 125.15 547.252 124.992 547.819 124.675C548.385 124.342 548.835 123.875 549.169 123.275C549.502 122.658 549.669 121.925 549.669 121.075ZM560.112 116.3C560.562 115.567 561.145 114.992 561.862 114.575C562.595 114.158 563.429 113.95 564.362 113.95V117.625H563.437C562.337 117.625 561.504 117.883 560.937 118.4C560.387 118.917 560.112 119.817 560.112 121.1V128H556.612V114.15H560.112V116.3ZM570.219 116.3C570.669 115.567 571.253 114.992 571.969 114.575C572.703 114.158 573.536 113.95 574.469 113.95V117.625H573.544C572.444 117.625 571.611 117.883 571.044 118.4C570.494 118.917 570.219 119.817 570.219 121.1V128H566.719V114.15H570.219V116.3ZM575.927 121.025C575.927 119.625 576.202 118.383 576.752 117.3C577.319 116.217 578.077 115.383 579.027 114.8C579.994 114.217 581.069 113.925 582.252 113.925C583.285 113.925 584.185 114.133 584.952 114.55C585.735 114.967 586.36 115.492 586.827 116.125V114.15H590.352V128H586.827V125.975C586.377 126.625 585.752 127.167 584.952 127.6C584.169 128.017 583.26 128.225 582.227 128.225C581.06 128.225 579.994 127.925 579.027 127.325C578.077 126.725 577.319 125.883 576.752 124.8C576.202 123.7 575.927 122.442 575.927 121.025ZM586.827 121.075C586.827 120.225 586.66 119.5 586.327 118.9C585.994 118.283 585.544 117.817 584.977 117.5C584.41 117.167 583.802 117 583.152 117C582.502 117 581.902 117.158 581.352 117.475C580.802 117.792 580.352 118.258 580.002 118.875C579.669 119.475 579.502 120.192 579.502 121.025C579.502 121.858 579.669 122.592 580.002 123.225C580.352 123.842 580.802 124.317 581.352 124.65C581.919 124.983 582.519 125.15 583.152 125.15C583.802 125.15 584.41 124.992 584.977 124.675C585.544 124.342 585.994 123.875 586.327 123.275C586.66 122.658 586.827 121.925 586.827 121.075ZM601.445 113.95C603.095 113.95 604.429 114.475 605.445 115.525C606.462 116.558 606.97 118.008 606.97 119.875V128H603.47V120.35C603.47 119.25 603.195 118.408 602.645 117.825C602.095 117.225 601.345 116.925 600.395 116.925C599.429 116.925 598.662 117.225 598.095 117.825C597.545 118.408 597.27 119.25 597.27 120.35V128H593.77V114.15H597.27V115.875C597.737 115.275 598.329 114.808 599.045 114.475C599.779 114.125 600.579 113.95 601.445 113.95ZM614.374 117.025V123.725C614.374 124.192 614.482 124.533 614.699 124.75C614.932 124.95 615.315 125.05 615.849 125.05H617.474V128H615.274C612.324 128 610.849 126.567 610.849 123.7V117.025H609.199V114.15H610.849V110.725H614.374V114.15H617.474V117.025H614.374ZM633.241 114.15L624.666 134.55H620.941L623.941 127.65L618.391 114.15H622.316L625.891 123.825L629.516 114.15H633.241ZM653.81 115.95C653.81 116.883 653.585 117.758 653.135 118.575C652.701 119.392 652.01 120.05 651.06 120.55C650.126 121.05 648.943 121.3 647.51 121.3H644.585V128H641.085V110.55H647.51C648.86 110.55 650.01 110.783 650.96 111.25C651.91 111.717 652.618 112.358 653.085 113.175C653.568 113.992 653.81 114.917 653.81 115.95ZM647.36 118.475C648.326 118.475 649.043 118.258 649.51 117.825C649.976 117.375 650.21 116.75 650.21 115.95C650.21 114.25 649.26 113.4 647.36 113.4H644.585V118.475H647.36ZM659.795 116.3C660.245 115.567 660.828 114.992 661.545 114.575C662.278 114.158 663.111 113.95 664.045 113.95V117.625H663.12C662.02 117.625 661.186 117.883 660.62 118.4C660.07 118.917 659.795 119.817 659.795 121.1V128H656.295V114.15H659.795V116.3ZM672.552 128.225C671.219 128.225 670.019 127.933 668.952 127.35C667.885 126.75 667.044 125.908 666.427 124.825C665.827 123.742 665.527 122.492 665.527 121.075C665.527 119.658 665.835 118.408 666.452 117.325C667.085 116.242 667.944 115.408 669.027 114.825C670.11 114.225 671.319 113.925 672.652 113.925C673.985 113.925 675.194 114.225 676.277 114.825C677.36 115.408 678.21 116.242 678.827 117.325C679.46 118.408 679.777 119.658 679.777 121.075C679.777 122.492 679.452 123.742 678.802 124.825C678.169 125.908 677.302 126.75 676.202 127.35C675.119 127.933 673.902 128.225 672.552 128.225ZM672.552 125.175C673.185 125.175 673.777 125.025 674.327 124.725C674.894 124.408 675.344 123.942 675.677 123.325C676.01 122.708 676.177 121.958 676.177 121.075C676.177 119.758 675.827 118.75 675.127 118.05C674.444 117.333 673.602 116.975 672.602 116.975C671.602 116.975 670.76 117.333 670.077 118.05C669.41 118.75 669.077 119.758 669.077 121.075C669.077 122.392 669.402 123.408 670.052 124.125C670.719 124.825 671.552 125.175 672.552 125.175ZM686.419 117.025V123.725C686.419 124.192 686.528 124.533 686.744 124.75C686.978 124.95 687.361 125.05 687.894 125.05H689.519V128H687.319C684.369 128 682.894 126.567 682.894 123.7V117.025H681.244V114.15H682.894V110.725H686.419V114.15H689.519V117.025H686.419ZM704.912 120.775C704.912 121.275 704.879 121.725 704.812 122.125H694.687C694.77 123.125 695.12 123.908 695.737 124.475C696.354 125.042 697.112 125.325 698.012 125.325C699.312 125.325 700.237 124.767 700.787 123.65H704.562C704.162 124.983 703.395 126.083 702.262 126.95C701.129 127.8 699.737 128.225 698.087 128.225C696.754 128.225 695.554 127.933 694.487 127.35C693.437 126.75 692.612 125.908 692.012 124.825C691.429 123.742 691.137 122.492 691.137 121.075C691.137 119.642 691.429 118.383 692.012 117.3C692.595 116.217 693.412 115.383 694.462 114.8C695.512 114.217 696.72 113.925 698.087 113.925C699.404 113.925 700.579 114.208 701.612 114.775C702.662 115.342 703.47 116.15 704.037 117.2C704.62 118.233 704.912 119.425 704.912 120.775ZM701.287 119.775C701.27 118.875 700.945 118.158 700.312 117.625C699.679 117.075 698.904 116.8 697.987 116.8C697.12 116.8 696.387 117.067 695.787 117.6C695.204 118.117 694.845 118.842 694.712 119.775H701.287ZM706.567 121.075C706.567 119.642 706.858 118.392 707.442 117.325C708.025 116.242 708.833 115.408 709.867 114.825C710.9 114.225 712.083 113.925 713.417 113.925C715.133 113.925 716.55 114.358 717.667 115.225C718.8 116.075 719.558 117.275 719.942 118.825H716.167C715.967 118.225 715.625 117.758 715.142 117.425C714.675 117.075 714.092 116.9 713.392 116.9C712.392 116.9 711.6 117.267 711.017 118C710.433 118.717 710.142 119.742 710.142 121.075C710.142 122.392 710.433 123.417 711.017 124.15C711.6 124.867 712.392 125.225 713.392 125.225C714.808 125.225 715.733 124.592 716.167 123.325H719.942C719.558 124.825 718.8 126.017 717.667 126.9C716.533 127.783 715.117 128.225 713.417 128.225C712.083 128.225 710.9 127.933 709.867 127.35C708.833 126.75 708.025 125.917 707.442 124.85C706.858 123.767 706.567 122.508 706.567 121.075ZM726.581 117.025V123.725C726.581 124.192 726.689 124.533 726.906 124.75C727.139 124.95 727.522 125.05 728.056 125.05H729.681V128H727.481C724.531 128 723.056 126.567 723.056 123.7V117.025H721.406V114.15H723.056V110.725H726.581V114.15H729.681V117.025H726.581ZM733.973 112.5C733.356 112.5 732.84 112.308 732.423 111.925C732.023 111.525 731.823 111.033 731.823 110.45C731.823 109.867 732.023 109.383 732.423 109C732.84 108.6 733.356 108.4 733.973 108.4C734.59 108.4 735.098 108.6 735.498 109C735.915 109.383 736.123 109.867 736.123 110.45C736.123 111.033 735.915 111.525 735.498 111.925C735.098 112.308 734.59 112.5 733.973 112.5ZM735.698 114.15V128H732.198V114.15H735.698ZM745.306 128.225C743.973 128.225 742.773 127.933 741.706 127.35C740.639 126.75 739.798 125.908 739.181 124.825C738.581 123.742 738.281 122.492 738.281 121.075C738.281 119.658 738.589 118.408 739.206 117.325C739.839 116.242 740.698 115.408 741.781 114.825C742.864 114.225 744.073 113.925 745.406 113.925C746.739 113.925 747.948 114.225 749.031 114.825C750.114 115.408 750.964 116.242 751.581 117.325C752.214 118.408 752.531 119.658 752.531 121.075C752.531 122.492 752.206 123.742 751.556 124.825C750.923 125.908 750.056 126.75 748.956 127.35C747.873 127.933 746.656 128.225 745.306 128.225ZM745.306 125.175C745.939 125.175 746.531 125.025 747.081 124.725C747.648 124.408 748.098 123.942 748.431 123.325C748.764 122.708 748.931 121.958 748.931 121.075C748.931 119.758 748.581 118.75 747.881 118.05C747.198 117.333 746.356 116.975 745.356 116.975C744.356 116.975 743.514 117.333 742.831 118.05C742.164 118.75 741.831 119.758 741.831 121.075C741.831 122.392 742.156 123.408 742.806 124.125C743.473 124.825 744.306 125.175 745.306 125.175ZM762.773 113.95C764.423 113.95 765.757 114.475 766.773 115.525C767.79 116.558 768.298 118.008 768.298 119.875V128H764.798V120.35C764.798 119.25 764.523 118.408 763.973 117.825C763.423 117.225 762.673 116.925 761.723 116.925C760.757 116.925 759.99 117.225 759.423 117.825C758.873 118.408 758.598 119.25 758.598 120.35V128H755.098V114.15H758.598V115.875C759.065 115.275 759.657 114.808 760.373 114.475C761.107 114.125 761.907 113.95 762.773 113.95Z" fill="#242424"/>
<path d="M520.173 162.14C518.88 162.14 517.687 161.84 516.593 161.24C515.513 160.627 514.653 159.78 514.013 158.7C513.387 157.607 513.073 156.38 513.073 155.02C513.073 153.66 513.387 152.44 514.013 151.36C514.653 150.28 515.513 149.44 516.593 148.84C517.687 148.227 518.88 147.92 520.173 147.92C521.48 147.92 522.673 148.227 523.753 148.84C524.847 149.44 525.707 150.28 526.333 151.36C526.96 152.44 527.273 153.66 527.273 155.02C527.273 156.38 526.96 157.607 526.333 158.7C525.707 159.78 524.847 160.627 523.753 161.24C522.673 161.84 521.48 162.14 520.173 162.14ZM520.173 160.16C521.093 160.16 521.913 159.953 522.633 159.54C523.353 159.113 523.913 158.513 524.313 157.74C524.727 156.953 524.933 156.047 524.933 155.02C524.933 153.993 524.727 153.093 524.313 152.32C523.913 151.547 523.353 150.953 522.633 150.54C521.913 150.127 521.093 149.92 520.173 149.92C519.253 149.92 518.433 150.127 517.713 150.54C516.993 150.953 516.427 151.547 516.013 152.32C515.613 153.093 515.413 153.993 515.413 155.02C515.413 156.047 515.613 156.953 516.013 157.74C516.427 158.513 516.993 159.113 517.713 159.54C518.433 159.953 519.253 160.16 520.173 160.16ZM533.777 159.96L536.897 150.98H539.317L535.117 162H532.397L528.217 150.98H530.657L533.777 159.96ZM551.14 156.22C551.14 156.633 551.114 157.007 551.06 157.34H542.64C542.707 158.22 543.034 158.927 543.62 159.46C544.207 159.993 544.927 160.26 545.78 160.26C547.007 160.26 547.874 159.747 548.38 158.72H550.84C550.507 159.733 549.9 160.567 549.02 161.22C548.154 161.86 547.074 162.18 545.78 162.18C544.727 162.18 543.78 161.947 542.94 161.48C542.114 161 541.46 160.333 540.98 159.48C540.514 158.613 540.28 157.613 540.28 156.48C540.28 155.347 540.507 154.353 540.96 153.5C541.427 152.633 542.074 151.967 542.9 151.5C543.74 151.033 544.7 150.8 545.78 150.8C546.82 150.8 547.747 151.027 548.56 151.48C549.374 151.933 550.007 152.573 550.46 153.4C550.914 154.213 551.14 155.153 551.14 156.22ZM548.76 155.5C548.747 154.66 548.447 153.987 547.86 153.48C547.274 152.973 546.547 152.72 545.68 152.72C544.894 152.72 544.22 152.973 543.66 153.48C543.1 153.973 542.767 154.647 542.66 155.5H548.76ZM555.664 152.58C555.997 152.02 556.437 151.587 556.984 151.28C557.544 150.96 558.204 150.8 558.964 150.8V153.16H558.384C557.491 153.16 556.811 153.387 556.344 153.84C555.891 154.293 555.664 155.08 555.664 156.2V162H553.384V150.98H555.664V152.58ZM567.215 158.9C568.495 157.793 569.502 156.887 570.235 156.18C570.982 155.46 571.602 154.713 572.095 153.94C572.589 153.167 572.835 152.393 572.835 151.62C572.835 150.82 572.642 150.193 572.255 149.74C571.882 149.287 571.289 149.06 570.475 149.06C569.689 149.06 569.075 149.313 568.635 149.82C568.209 150.313 567.982 150.98 567.955 151.82H565.755C565.795 150.3 566.249 149.14 567.115 148.34C567.995 147.527 569.109 147.12 570.455 147.12C571.909 147.12 573.042 147.52 573.855 148.32C574.682 149.12 575.095 150.187 575.095 151.52C575.095 152.48 574.849 153.407 574.355 154.3C573.875 155.18 573.295 155.973 572.615 156.68C571.949 157.373 571.095 158.18 570.055 159.1L569.155 159.9H575.495V161.8H565.775V160.14L567.215 158.9ZM592.914 150.98L586.153 167.18H583.793L586.034 161.82L581.693 150.98H584.233L587.334 159.38L590.553 150.98H592.914ZM604.734 156.22C604.734 156.633 604.707 157.007 604.654 157.34H596.234C596.301 158.22 596.627 158.927 597.214 159.46C597.801 159.993 598.521 160.26 599.374 160.26C600.601 160.26 601.467 159.747 601.974 158.72H604.434C604.101 159.733 603.494 160.567 602.614 161.22C601.747 161.86 600.667 162.18 599.374 162.18C598.321 162.18 597.374 161.947 596.534 161.48C595.707 161 595.054 160.333 594.574 159.48C594.107 158.613 593.874 157.613 593.874 156.48C593.874 155.347 594.101 154.353 594.554 153.5C595.021 152.633 595.667 151.967 596.494 151.5C597.334 151.033 598.294 150.8 599.374 150.8C600.414 150.8 601.341 151.027 602.154 151.48C602.967 151.933 603.601 152.573 604.054 153.4C604.507 154.213 604.734 155.153 604.734 156.22ZM602.354 155.5C602.341 154.66 602.041 153.987 601.454 153.48C600.867 152.973 600.141 152.72 599.274 152.72C598.487 152.72 597.814 152.973 597.254 153.48C596.694 153.973 596.361 154.647 596.254 155.5H602.354ZM606.218 156.44C606.218 155.333 606.445 154.353 606.898 153.5C607.365 152.647 607.991 151.987 608.778 151.52C609.578 151.04 610.458 150.8 611.418 150.8C612.285 150.8 613.038 150.973 613.678 151.32C614.331 151.653 614.851 152.073 615.238 152.58V150.98H617.538V162H615.238V160.36C614.851 160.88 614.325 161.313 613.658 161.66C612.991 162.007 612.231 162.18 611.378 162.18C610.431 162.18 609.565 161.94 608.778 161.46C607.991 160.967 607.365 160.287 606.898 159.42C606.445 158.54 606.218 157.547 606.218 156.44ZM615.238 156.48C615.238 155.72 615.078 155.06 614.758 154.5C614.451 153.94 614.045 153.513 613.538 153.22C613.031 152.927 612.485 152.78 611.898 152.78C611.311 152.78 610.765 152.927 610.258 153.22C609.751 153.5 609.338 153.92 609.018 154.48C608.711 155.027 608.558 155.68 608.558 156.44C608.558 157.2 608.711 157.867 609.018 158.44C609.338 159.013 609.751 159.453 610.258 159.76C610.778 160.053 611.325 160.2 611.898 160.2C612.485 160.2 613.031 160.053 613.538 159.76C614.045 159.467 614.451 159.04 614.758 158.48C615.078 157.907 615.238 157.24 615.238 156.48ZM622.813 152.58C623.146 152.02 623.586 151.587 624.133 151.28C624.693 150.96 625.353 150.8 626.113 150.8V153.16H625.533C624.639 153.16 623.959 153.387 623.493 153.84C623.039 154.293 622.813 155.08 622.813 156.2V162H620.533V150.98H622.813V152.58ZM632.208 162.18C631.342 162.18 630.562 162.027 629.868 161.72C629.188 161.4 628.648 160.973 628.248 160.44C627.848 159.893 627.635 159.287 627.608 158.62H629.968C630.008 159.087 630.228 159.48 630.628 159.8C631.042 160.107 631.555 160.26 632.168 160.26C632.808 160.26 633.302 160.14 633.648 159.9C634.008 159.647 634.188 159.327 634.188 158.94C634.188 158.527 633.988 158.22 633.588 158.02C633.202 157.82 632.582 157.6 631.728 157.36C630.902 157.133 630.228 156.913 629.708 156.7C629.188 156.487 628.735 156.16 628.348 155.72C627.975 155.28 627.788 154.7 627.788 153.98C627.788 153.393 627.962 152.86 628.308 152.38C628.655 151.887 629.148 151.5 629.788 151.22C630.442 150.94 631.188 150.8 632.028 150.8C633.282 150.8 634.288 151.12 635.048 151.76C635.822 152.387 636.235 153.247 636.288 154.34H634.008C633.968 153.847 633.768 153.453 633.408 153.16C633.048 152.867 632.562 152.72 631.948 152.72C631.348 152.72 630.888 152.833 630.568 153.06C630.248 153.287 630.088 153.587 630.088 153.96C630.088 154.253 630.195 154.5 630.408 154.7C630.622 154.9 630.882 155.06 631.188 155.18C631.495 155.287 631.948 155.427 632.548 155.6C633.348 155.813 634.002 156.033 634.508 156.26C635.028 156.473 635.475 156.793 635.848 157.22C636.222 157.647 636.415 158.213 636.428 158.92C636.428 159.547 636.255 160.107 635.908 160.6C635.562 161.093 635.068 161.48 634.428 161.76C633.802 162.04 633.062 162.18 632.208 162.18Z" fill="#898989"/>
<g clip-path="url(#clip1_0_188)">
<path d="M881.015 136.102V108.78C881.015 107.805 880.224 107.015 879.25 107.015H831.962C830.987 107.015 830.197 107.805 830.197 108.78V138.28C829.345 138.404 828.513 138.735 827.777 139.281C825.455 140.927 824.906 144.611 826.851 146.883L834.801 156.52C839.722 162.28 844.949 162.986 852.721 162.986C859.389 162.986 862.371 163.015 868.183 161.691L873.843 160.337C874.76 161.618 876.217 162.449 877.855 162.449H880.643C883.413 162.449 885.667 160.074 885.667 157.156V141.379C885.667 138.592 883.612 136.303 881.015 136.102ZM873.081 139.733L870.73 138.538C866.863 136.587 862.393 136.514 858.465 138.34C857.393 138.762 855.056 140.176 853.844 140.129H845.683C842.977 140.129 840.774 142.331 840.774 145.038V146.325C840.759 146.309 840.743 146.294 840.728 146.277L834.901 139.952C834.548 139.569 834.152 139.249 833.727 138.992V121.481H848.171V127.951C848.171 128.926 848.961 129.716 849.936 129.716H861.073C862.048 129.716 862.838 128.926 862.838 127.951V121.481H877.485V136.102C875.423 136.261 873.703 137.737 873.081 139.733ZM851.701 121.481H859.308V126.186H851.701V121.481ZM877.485 117.951H862.838V110.545H877.485V117.951H877.485ZM859.308 110.545V117.951H851.701V110.545H859.308ZM848.171 110.545V117.951H833.727V110.545H848.171ZM867.364 158.257C861.995 159.487 858.761 159.437 852.784 159.437C845.489 159.437 841.964 159.319 837.524 154.274L829.574 144.636C828.191 142.836 830.696 140.71 832.305 142.344L838.132 148.669C839.672 150.294 841.61 151.189 843.999 151.241H860.156C861.13 151.241 861.921 150.451 861.921 149.476C861.921 148.501 861.13 147.711 860.156 147.711H844.304V145.037C844.304 144.277 844.923 143.658 845.683 143.658H853.844C855.682 143.79 858.336 142.255 859.953 141.541C862.895 140.173 866.243 140.228 869.135 141.687L872.831 143.565V156.949L867.364 158.257ZM882.137 157.156C882.137 158.128 881.467 158.919 880.643 158.919H877.855C877.031 158.919 876.361 158.128 876.361 157.156V141.379C876.361 140.407 877.031 139.616 877.855 139.616H880.643C881.467 139.616 882.137 140.407 882.137 141.379V157.156Z" fill="#242424"/>
</g>
<path d="M908.167 110.55V113.375H900.892V117.85H906.467V120.625H900.892V128H897.392V110.55H908.167ZM914.149 116.3C914.599 115.567 915.182 114.992 915.899 114.575C916.632 114.158 917.465 113.95 918.399 113.95V117.625H917.474C916.374 117.625 915.54 117.883 914.974 118.4C914.424 118.917 914.149 119.817 914.149 121.1V128H910.649V114.15H914.149V116.3ZM933.631 120.775C933.631 121.275 933.598 121.725 933.531 122.125H923.406C923.489 123.125 923.839 123.908 924.456 124.475C925.073 125.042 925.831 125.325 926.731 125.325C928.031 125.325 928.956 124.767 929.506 123.65H933.281C932.881 124.983 932.114 126.083 930.981 126.95C929.848 127.8 928.456 128.225 926.806 128.225C925.473 128.225 924.273 127.933 923.206 127.35C922.156 126.75 921.331 125.908 920.731 124.825C920.148 123.742 919.856 122.492 919.856 121.075C919.856 119.642 920.148 118.383 920.731 117.3C921.314 116.217 922.131 115.383 923.181 114.8C924.231 114.217 925.439 113.925 926.806 113.925C928.123 113.925 929.298 114.208 930.331 114.775C931.381 115.342 932.189 116.15 932.756 117.2C933.339 118.233 933.631 119.425 933.631 120.775ZM930.006 119.775C929.989 118.875 929.664 118.158 929.031 117.625C928.398 117.075 927.623 116.8 926.706 116.8C925.839 116.8 925.106 117.067 924.506 117.6C923.923 118.117 923.564 118.842 923.431 119.775H930.006ZM949.061 120.775C949.061 121.275 949.027 121.725 948.961 122.125H938.836C938.919 123.125 939.269 123.908 939.886 124.475C940.502 125.042 941.261 125.325 942.161 125.325C943.461 125.325 944.386 124.767 944.936 123.65H948.711C948.311 124.983 947.544 126.083 946.411 126.95C945.277 127.8 943.886 128.225 942.236 128.225C940.902 128.225 939.702 127.933 938.636 127.35C937.586 126.75 936.761 125.908 936.161 124.825C935.577 123.742 935.286 122.492 935.286 121.075C935.286 119.642 935.577 118.383 936.161 117.3C936.744 116.217 937.561 115.383 938.611 114.8C939.661 114.217 940.869 113.925 942.236 113.925C943.552 113.925 944.727 114.208 945.761 114.775C946.811 115.342 947.619 116.15 948.186 117.2C948.769 118.233 949.061 119.425 949.061 120.775ZM945.436 119.775C945.419 118.875 945.094 118.158 944.461 117.625C943.827 117.075 943.052 116.8 942.136 116.8C941.269 116.8 940.536 117.067 939.936 117.6C939.352 118.117 938.994 118.842 938.861 119.775H945.436ZM963.597 128.175C962.381 128.175 961.281 127.967 960.297 127.55C959.331 127.133 958.564 126.533 957.997 125.75C957.431 124.967 957.139 124.042 957.122 122.975H960.872C960.922 123.692 961.172 124.258 961.622 124.675C962.089 125.092 962.722 125.3 963.522 125.3C964.339 125.3 964.981 125.108 965.447 124.725C965.914 124.325 966.147 123.808 966.147 123.175C966.147 122.658 965.989 122.233 965.672 121.9C965.356 121.567 964.956 121.308 964.472 121.125C964.006 120.925 963.356 120.708 962.522 120.475C961.389 120.142 960.464 119.817 959.747 119.5C959.047 119.167 958.439 118.675 957.922 118.025C957.422 117.358 957.172 116.475 957.172 115.375C957.172 114.342 957.431 113.442 957.947 112.675C958.464 111.908 959.189 111.325 960.122 110.925C961.056 110.508 962.122 110.3 963.322 110.3C965.122 110.3 966.581 110.742 967.697 111.625C968.831 112.492 969.456 113.708 969.572 115.275H965.722C965.689 114.675 965.431 114.183 964.947 113.8C964.481 113.4 963.856 113.2 963.072 113.2C962.389 113.2 961.839 113.375 961.422 113.725C961.022 114.075 960.822 114.583 960.822 115.25C960.822 115.717 960.972 116.108 961.272 116.425C961.589 116.725 961.972 116.975 962.422 117.175C962.889 117.358 963.539 117.575 964.372 117.825C965.506 118.158 966.431 118.492 967.147 118.825C967.864 119.158 968.481 119.658 968.997 120.325C969.514 120.992 969.772 121.867 969.772 122.95C969.772 123.883 969.531 124.75 969.047 125.55C968.564 126.35 967.856 126.992 966.922 127.475C965.989 127.942 964.881 128.175 963.597 128.175ZM980.607 113.95C981.657 113.95 982.59 114.183 983.407 114.65C984.223 115.1 984.857 115.775 985.307 116.675C985.773 117.558 986.007 118.625 986.007 119.875V128H982.507V120.35C982.507 119.25 982.232 118.408 981.682 117.825C981.132 117.225 980.382 116.925 979.432 116.925C978.465 116.925 977.698 117.225 977.132 117.825C976.582 118.408 976.307 119.25 976.307 120.35V128H972.807V109.5H976.307V115.875C976.757 115.275 977.357 114.808 978.107 114.475C978.857 114.125 979.69 113.95 980.607 113.95ZM991.11 112.5C990.493 112.5 989.977 112.308 989.56 111.925C989.16 111.525 988.96 111.033 988.96 110.45C988.96 109.867 989.16 109.383 989.56 109C989.977 108.6 990.493 108.4 991.11 108.4C991.727 108.4 992.235 108.6 992.635 109C993.052 109.383 993.26 109.867 993.26 110.45C993.26 111.033 993.052 111.525 992.635 111.925C992.235 112.308 991.727 112.5 991.11 112.5ZM992.835 114.15V128H989.335V114.15H992.835ZM999.793 116.15C1000.24 115.517 1000.86 114.992 1001.64 114.575C1002.44 114.142 1003.35 113.925 1004.37 113.925C1005.55 113.925 1006.62 114.217 1007.57 114.8C1008.53 115.383 1009.29 116.217 1009.84 117.3C1010.41 118.367 1010.69 119.608 1010.69 121.025C1010.69 122.442 1010.41 123.7 1009.84 124.8C1009.29 125.883 1008.53 126.725 1007.57 127.325C1006.62 127.925 1005.55 128.225 1004.37 128.225C1003.35 128.225 1002.45 128.017 1001.67 127.6C1000.9 127.183 1000.28 126.658 999.793 126.025V134.6H996.293V114.15H999.793V116.15ZM1007.12 121.025C1007.12 120.192 1006.94 119.475 1006.59 118.875C1006.26 118.258 1005.81 117.792 1005.24 117.475C1004.69 117.158 1004.09 117 1003.44 117C1002.81 117 1002.21 117.167 1001.64 117.5C1001.09 117.817 1000.64 118.283 1000.29 118.9C999.96 119.517 999.793 120.242 999.793 121.075C999.793 121.908 999.96 122.633 1000.29 123.25C1000.64 123.867 1001.09 124.342 1001.64 124.675C1002.21 124.992 1002.81 125.15 1003.44 125.15C1004.09 125.15 1004.69 124.983 1005.24 124.65C1005.81 124.317 1006.26 123.842 1006.59 123.225C1006.94 122.608 1007.12 121.875 1007.12 121.025ZM1016.74 116.15C1017.19 115.517 1017.8 114.992 1018.59 114.575C1019.39 114.142 1020.29 113.925 1021.31 113.925C1022.49 113.925 1023.56 114.217 1024.51 114.8C1025.48 115.383 1026.24 116.217 1026.79 117.3C1027.35 118.367 1027.64 119.608 1027.64 121.025C1027.64 122.442 1027.35 123.7 1026.79 124.8C1026.24 125.883 1025.48 126.725 1024.51 127.325C1023.56 127.925 1022.49 128.225 1021.31 128.225C1020.29 128.225 1019.39 128.017 1018.61 127.6C1017.84 127.183 1017.22 126.658 1016.74 126.025V134.6H1013.24V114.15H1016.74V116.15ZM1024.06 121.025C1024.06 120.192 1023.89 119.475 1023.54 118.875C1023.2 118.258 1022.75 117.792 1022.19 117.475C1021.64 117.158 1021.04 117 1020.39 117C1019.75 117 1019.15 117.167 1018.59 117.5C1018.04 117.817 1017.59 118.283 1017.24 118.9C1016.9 119.517 1016.74 120.242 1016.74 121.075C1016.74 121.908 1016.9 122.633 1017.24 123.25C1017.59 123.867 1018.04 124.342 1018.59 124.675C1019.15 124.992 1019.75 125.15 1020.39 125.15C1021.04 125.15 1021.64 124.983 1022.19 124.65C1022.75 124.317 1023.2 123.842 1023.54 123.225C1023.89 122.608 1024.06 121.875 1024.06 121.025ZM1031.95 112.5C1031.34 112.5 1030.82 112.308 1030.4 111.925C1030 111.525 1029.8 111.033 1029.8 110.45C1029.8 109.867 1030 109.383 1030.4 109C1030.82 108.6 1031.34 108.4 1031.95 108.4C1032.57 108.4 1033.08 108.6 1033.48 109C1033.9 109.383 1034.1 109.867 1034.1 110.45C1034.1 111.033 1033.9 111.525 1033.48 111.925C1033.08 112.308 1032.57 112.5 1031.95 112.5ZM1033.68 114.15V128H1030.18V114.15H1033.68ZM1044.81 113.95C1046.46 113.95 1047.8 114.475 1048.81 115.525C1049.83 116.558 1050.34 118.008 1050.34 119.875V128H1046.84V120.35C1046.84 119.25 1046.56 118.408 1046.01 117.825C1045.46 117.225 1044.71 116.925 1043.76 116.925C1042.8 116.925 1042.03 117.225 1041.46 117.825C1040.91 118.408 1040.64 119.25 1040.64 120.35V128H1037.14V114.15H1040.64V115.875C1041.1 115.275 1041.7 114.808 1042.41 114.475C1043.15 114.125 1043.95 113.95 1044.81 113.95ZM1059.09 113.925C1060.12 113.925 1061.03 114.133 1061.82 114.55C1062.6 114.95 1063.22 115.475 1063.67 116.125V114.15H1067.19V128.1C1067.19 129.383 1066.93 130.525 1066.42 131.525C1065.9 132.542 1065.12 133.342 1064.09 133.925C1063.06 134.525 1061.81 134.825 1060.34 134.825C1058.37 134.825 1056.76 134.367 1055.49 133.45C1054.24 132.533 1053.53 131.283 1053.37 129.7H1056.84C1057.02 130.333 1057.42 130.833 1058.02 131.2C1058.63 131.583 1059.37 131.775 1060.24 131.775C1061.26 131.775 1062.08 131.467 1062.72 130.85C1063.35 130.25 1063.67 129.333 1063.67 128.1V125.95C1063.22 126.6 1062.59 127.142 1061.79 127.575C1061.01 128.008 1060.11 128.225 1059.09 128.225C1057.92 128.225 1056.86 127.925 1055.89 127.325C1054.92 126.725 1054.16 125.883 1053.59 124.8C1053.04 123.7 1052.77 122.442 1052.77 121.025C1052.77 119.625 1053.04 118.383 1053.59 117.3C1054.16 116.217 1054.92 115.383 1055.87 114.8C1056.83 114.217 1057.91 113.925 1059.09 113.925ZM1063.67 121.075C1063.67 120.225 1063.5 119.5 1063.17 118.9C1062.83 118.283 1062.38 117.817 1061.82 117.5C1061.25 117.167 1060.64 117 1059.99 117C1059.34 117 1058.74 117.158 1058.19 117.475C1057.64 117.792 1057.19 118.258 1056.84 118.875C1056.51 119.475 1056.34 120.192 1056.34 121.025C1056.34 121.858 1056.51 122.592 1056.84 123.225C1057.19 123.842 1057.64 124.317 1058.19 124.65C1058.76 124.983 1059.36 125.15 1059.99 125.15C1060.64 125.15 1061.25 124.992 1061.82 124.675C1062.38 124.342 1062.83 123.875 1063.17 123.275C1063.5 122.658 1063.67 121.925 1063.67 121.075Z" fill="#242424"/>
<path d="M903.507 162.14C902.213 162.14 901.02 161.84 899.927 161.24C898.847 160.627 897.987 159.78 897.347 158.7C896.72 157.607 896.407 156.38 896.407 155.02C896.407 153.66 896.72 152.44 897.347 151.36C897.987 150.28 898.847 149.44 899.927 148.84C901.02 148.227 902.213 147.92 903.507 147.92C904.813 147.92 906.007 148.227 907.087 148.84C908.18 149.44 909.04 150.28 909.667 151.36C910.293 152.44 910.607 153.66 910.607 155.02C910.607 156.38 910.293 157.607 909.667 158.7C909.04 159.78 908.18 160.627 907.087 161.24C906.007 161.84 904.813 162.14 903.507 162.14ZM903.507 160.16C904.427 160.16 905.247 159.953 905.967 159.54C906.687 159.113 907.247 158.513 907.647 157.74C908.06 156.953 908.267 156.047 908.267 155.02C908.267 153.993 908.06 153.093 907.647 152.32C907.247 151.547 906.687 150.953 905.967 150.54C905.247 150.127 904.427 149.92 903.507 149.92C902.587 149.92 901.767 150.127 901.047 150.54C900.327 150.953 899.76 151.547 899.347 152.32C898.947 153.093 898.747 153.993 898.747 155.02C898.747 156.047 898.947 156.953 899.347 157.74C899.76 158.513 900.327 159.113 901.047 159.54C901.767 159.953 902.587 160.16 903.507 160.16ZM915.13 152.58C915.464 152.02 915.904 151.587 916.45 151.28C917.01 150.96 917.67 150.8 918.43 150.8V153.16H917.85C916.957 153.16 916.277 153.387 915.81 153.84C915.357 154.293 915.13 155.08 915.13 156.2V162H912.85V150.98H915.13V152.58ZM919.766 156.44C919.766 155.333 919.993 154.353 920.446 153.5C920.913 152.647 921.539 151.987 922.326 151.52C923.126 151.04 924.013 150.8 924.986 150.8C925.706 150.8 926.413 150.96 927.106 151.28C927.813 151.587 928.373 152 928.786 152.52V147.2H931.086V162H928.786V160.34C928.413 160.873 927.893 161.313 927.226 161.66C926.573 162.007 925.819 162.18 924.966 162.18C924.006 162.18 923.126 161.94 922.326 161.46C921.539 160.967 920.913 160.287 920.446 159.42C919.993 158.54 919.766 157.547 919.766 156.44ZM928.786 156.48C928.786 155.72 928.626 155.06 928.306 154.5C927.999 153.94 927.593 153.513 927.086 153.22C926.579 152.927 926.033 152.78 925.446 152.78C924.859 152.78 924.313 152.927 923.806 153.22C923.299 153.5 922.886 153.92 922.566 154.48C922.259 155.027 922.106 155.68 922.106 156.44C922.106 157.2 922.259 157.867 922.566 158.44C922.886 159.013 923.299 159.453 923.806 159.76C924.326 160.053 924.873 160.2 925.446 160.2C926.033 160.2 926.579 160.053 927.086 159.76C927.593 159.467 927.999 159.04 928.306 158.48C928.626 157.907 928.786 157.24 928.786 156.48ZM944.181 156.22C944.181 156.633 944.154 157.007 944.101 157.34H935.681C935.747 158.22 936.074 158.927 936.661 159.46C937.247 159.993 937.967 160.26 938.821 160.26C940.047 160.26 940.914 159.747 941.421 158.72H943.881C943.547 159.733 942.941 160.567 942.061 161.22C941.194 161.86 940.114 162.18 938.821 162.18C937.767 162.18 936.821 161.947 935.981 161.48C935.154 161 934.501 160.333 934.021 159.48C933.554 158.613 933.321 157.613 933.321 156.48C933.321 155.347 933.547 154.353 934.001 153.5C934.467 152.633 935.114 151.967 935.941 151.5C936.781 151.033 937.741 150.8 938.821 150.8C939.861 150.8 940.787 151.027 941.601 151.48C942.414 151.933 943.047 152.573 943.501 153.4C943.954 154.213 944.181 155.153 944.181 156.22ZM941.801 155.5C941.787 154.66 941.487 153.987 940.901 153.48C940.314 152.973 939.587 152.72 938.721 152.72C937.934 152.72 937.261 152.973 936.701 153.48C936.141 153.973 935.807 154.647 935.701 155.5H941.801ZM948.704 152.58C949.038 152.02 949.478 151.587 950.025 151.28C950.584 150.96 951.244 150.8 952.004 150.8V153.16H951.424C950.531 153.16 949.851 153.387 949.384 153.84C948.931 154.293 948.704 155.08 948.704 156.2V162H946.424V150.98H948.704V152.58ZM964.076 162.18C963.036 162.18 962.096 161.947 961.256 161.48C960.416 161 959.756 160.333 959.276 159.48C958.796 158.613 958.556 157.613 958.556 156.48C958.556 155.36 958.802 154.367 959.296 153.5C959.789 152.633 960.462 151.967 961.316 151.5C962.169 151.033 963.122 150.8 964.176 150.8C965.229 150.8 966.182 151.033 967.036 151.5C967.889 151.967 968.562 152.633 969.056 153.5C969.549 154.367 969.796 155.36 969.796 156.48C969.796 157.6 969.542 158.593 969.036 159.46C968.529 160.327 967.836 161 966.956 161.48C966.089 161.947 965.129 162.18 964.076 162.18ZM964.076 160.2C964.662 160.2 965.209 160.06 965.716 159.78C966.236 159.5 966.656 159.08 966.976 158.52C967.296 157.96 967.456 157.28 967.456 156.48C967.456 155.68 967.302 155.007 966.996 154.46C966.689 153.9 966.282 153.48 965.776 153.2C965.269 152.92 964.722 152.78 964.136 152.78C963.549 152.78 963.002 152.92 962.496 153.2C962.002 153.48 961.609 153.9 961.316 154.46C961.022 155.007 960.876 155.68 960.876 156.48C960.876 157.667 961.176 158.587 961.776 159.24C962.389 159.88 963.156 160.2 964.076 160.2ZM976.309 159.96L979.43 150.98H981.849L977.649 162H974.929L970.749 150.98H973.189L976.309 159.96ZM993.673 156.22C993.673 156.633 993.646 157.007 993.593 157.34H985.173C985.24 158.22 985.566 158.927 986.153 159.46C986.74 159.993 987.46 160.26 988.313 160.26C989.54 160.26 990.406 159.747 990.913 158.72H993.373C993.04 159.733 992.433 160.567 991.553 161.22C990.686 161.86 989.606 162.18 988.313 162.18C987.26 162.18 986.313 161.947 985.473 161.48C984.646 161 983.993 160.333 983.513 159.48C983.046 158.613 982.813 157.613 982.813 156.48C982.813 155.347 983.04 154.353 983.493 153.5C983.96 152.633 984.606 151.967 985.433 151.5C986.273 151.033 987.233 150.8 988.313 150.8C989.353 150.8 990.28 151.027 991.093 151.48C991.906 151.933 992.54 152.573 992.993 153.4C993.446 154.213 993.673 155.153 993.673 156.22ZM991.293 155.5C991.28 154.66 990.98 153.987 990.393 153.48C989.806 152.973 989.08 152.72 988.213 152.72C987.426 152.72 986.753 152.973 986.193 153.48C985.633 153.973 985.3 154.647 985.193 155.5H991.293ZM998.197 152.58C998.53 152.02 998.97 151.587 999.517 151.28C1000.08 150.96 1000.74 150.8 1001.5 150.8V153.16H1000.92C1000.02 153.16 999.343 153.387 998.877 153.84C998.423 154.293 998.197 155.08 998.197 156.2V162H995.917V150.98H998.197V152.58ZM1008.19 149.5V147.42H1012.35V162H1010.05V149.5H1008.19ZM1024.88 149.38H1018.18V153.36C1018.46 152.987 1018.87 152.673 1019.42 152.42C1019.98 152.167 1020.57 152.04 1021.2 152.04C1022.32 152.04 1023.23 152.28 1023.92 152.76C1024.63 153.24 1025.13 153.847 1025.42 154.58C1025.73 155.313 1025.88 156.087 1025.88 156.9C1025.88 157.887 1025.69 158.767 1025.3 159.54C1024.93 160.3 1024.36 160.9 1023.6 161.34C1022.85 161.78 1021.93 162 1020.84 162C1019.39 162 1018.22 161.64 1017.34 160.92C1016.46 160.2 1015.93 159.247 1015.76 158.06H1017.98C1018.13 158.687 1018.45 159.187 1018.96 159.56C1019.47 159.92 1020.1 160.1 1020.86 160.1C1021.81 160.1 1022.51 159.813 1022.98 159.24C1023.46 158.667 1023.7 157.907 1023.7 156.96C1023.7 156 1023.46 155.267 1022.98 154.76C1022.5 154.24 1021.79 153.98 1020.86 153.98C1020.21 153.98 1019.65 154.147 1019.2 154.48C1018.76 154.8 1018.44 155.24 1018.24 155.8H1016.08V147.38H1024.88V149.38ZM1028.25 154.52C1028.25 152.213 1028.64 150.413 1029.41 149.12C1030.2 147.813 1031.55 147.16 1033.45 147.16C1035.36 147.16 1036.7 147.813 1037.47 149.12C1038.26 150.413 1038.65 152.213 1038.65 154.52C1038.65 156.853 1038.26 158.68 1037.47 160C1036.7 161.307 1035.36 161.96 1033.45 161.96C1031.55 161.96 1030.2 161.307 1029.41 160C1028.64 158.68 1028.25 156.853 1028.25 154.52ZM1036.41 154.52C1036.41 153.44 1036.34 152.527 1036.19 151.78C1036.06 151.033 1035.78 150.427 1035.35 149.96C1034.93 149.48 1034.29 149.24 1033.45 149.24C1032.61 149.24 1031.98 149.48 1031.55 149.96C1031.13 150.427 1030.84 151.033 1030.69 151.78C1030.56 152.527 1030.49 153.44 1030.49 154.52C1030.49 155.64 1030.56 156.58 1030.69 157.34C1030.83 158.1 1031.11 158.713 1031.53 159.18C1031.97 159.647 1032.61 159.88 1033.45 159.88C1034.29 159.88 1034.93 159.647 1035.35 159.18C1035.79 158.713 1036.08 158.1 1036.21 157.34C1036.35 156.58 1036.41 155.64 1036.41 154.52ZM1055.94 158.04C1055.94 158.707 1055.77 159.333 1055.44 159.92C1055.12 160.507 1054.64 161 1054 161.4C1053.37 161.8 1052.63 162.04 1051.76 162.12V163.74H1050.46V162.12C1049.21 162 1048.19 161.607 1047.42 160.94C1046.65 160.273 1046.26 159.393 1046.26 158.3H1048.7C1048.74 158.82 1048.91 159.253 1049.2 159.6C1049.49 159.933 1049.91 160.147 1050.46 160.24V155.84C1049.57 155.613 1048.84 155.387 1048.28 155.16C1047.72 154.92 1047.24 154.547 1046.84 154.04C1046.45 153.533 1046.26 152.84 1046.26 151.96C1046.26 150.853 1046.65 149.94 1047.42 149.22C1048.19 148.487 1049.21 148.06 1050.46 147.94V146.32H1051.76V147.94C1052.93 148.047 1053.87 148.42 1054.58 149.06C1055.3 149.687 1055.71 150.553 1055.8 151.66H1053.36C1053.32 151.247 1053.16 150.88 1052.88 150.56C1052.6 150.227 1052.23 150 1051.76 149.88V154.2C1052.65 154.413 1053.38 154.64 1053.94 154.88C1054.5 155.107 1054.97 155.473 1055.36 155.98C1055.75 156.473 1055.94 157.16 1055.94 158.04ZM1048.58 151.84C1048.58 152.387 1048.74 152.813 1049.06 153.12C1049.39 153.427 1049.86 153.673 1050.46 153.86V149.82C1049.89 149.887 1049.43 150.093 1049.08 150.44C1048.75 150.787 1048.58 151.253 1048.58 151.84ZM1051.76 160.24C1052.35 160.147 1052.81 159.913 1053.14 159.54C1053.47 159.153 1053.64 158.693 1053.64 158.16C1053.64 157.627 1053.47 157.213 1053.14 156.92C1052.82 156.613 1052.36 156.367 1051.76 156.18V160.24Z" fill="#898989"/>
<g clip-path="url(#clip2_0_188)">
<path d="M1179.69 128.963C1179.3 115.682 1168.37 105 1155 105C1141.63 105 1130.7 115.682 1130.31 128.963L1128.53 130.74V142.79L1130.29 144.554V152.765C1130.29 157.565 1134.2 161.471 1139 161.471H1141.19C1141.91 163.525 1143.88 165 1146.18 165H1149.71C1152.01 165 1153.97 163.522 1154.7 161.466C1154.8 161.468 1154.9 161.471 1155 161.471C1163.52 161.471 1170.65 155.398 1172.29 147.353H1176.91L1181.47 142.79V130.74L1179.69 128.963ZM1155 108.529C1165.47 108.529 1174.2 116.174 1175.88 126.176H1172.29C1170.65 118.131 1163.52 112.059 1155 112.059C1146.48 112.059 1139.35 118.131 1137.71 126.176H1134.12C1135.8 116.174 1144.53 108.529 1155 108.529ZM1168.67 126.176C1162.97 126.159 1158.94 126.507 1155.61 121.651L1154 119.293L1152.62 121.791C1150.6 125.431 1147.87 126.176 1144.41 126.176H1141.33C1142.9 120.094 1148.43 115.588 1155 115.588C1161.57 115.588 1167.1 120.094 1168.67 126.176ZM1137.35 143.824H1134.55L1132.06 141.328V132.202L1134.55 129.706H1137.35V143.824ZM1133.82 152.765V147.353H1137.7C1138.37 150.644 1139.96 153.665 1142.31 156.092C1141.82 156.619 1141.43 157.247 1141.19 157.941H1139C1136.15 157.941 1133.82 155.619 1133.82 152.765ZM1149.71 161.471H1146.18C1145.2 161.471 1144.41 160.679 1144.41 159.706C1144.41 158.733 1145.2 157.941 1146.18 157.941H1149.71C1150.68 157.941 1151.47 158.733 1151.47 159.706C1151.47 160.679 1150.68 161.471 1149.71 161.471ZM1169.12 143.824C1169.12 151.608 1162.78 157.941 1155 157.941C1154.9 157.941 1154.8 157.939 1154.69 157.937C1153.97 155.885 1152 154.412 1149.71 154.412C1146.08 154.42 1146.14 154.394 1145.69 154.435C1142.62 151.75 1140.88 147.925 1140.88 143.824V129.706H1144.41C1147.53 129.706 1151.34 129.191 1154.28 125.608C1158.17 129.679 1162.91 129.706 1167.18 129.706H1169.12V143.824ZM1177.94 141.328L1175.45 143.824H1172.65V129.706H1175.45L1177.94 132.202V141.328Z" fill="#242424"/>
</g>
<path d="M1197.43 124.05C1199.03 122.717 1200.3 121.608 1201.25 120.725C1202.2 119.825 1202.99 118.892 1203.63 117.925C1204.26 116.958 1204.58 116.008 1204.58 115.075C1204.58 114.225 1204.38 113.558 1203.98 113.075C1203.58 112.592 1202.96 112.35 1202.13 112.35C1201.29 112.35 1200.65 112.633 1200.2 113.2C1199.75 113.75 1199.52 114.508 1199.5 115.475H1196.1C1196.17 113.475 1196.76 111.958 1197.88 110.925C1199.01 109.892 1200.44 109.375 1202.18 109.375C1204.08 109.375 1205.53 109.883 1206.55 110.9C1207.57 111.9 1208.08 113.225 1208.08 114.875C1208.08 116.175 1207.73 117.417 1207.03 118.6C1206.33 119.783 1205.53 120.817 1204.63 121.7C1203.73 122.567 1202.55 123.617 1201.1 124.85H1208.48V127.75H1196.13V125.15L1197.43 124.05ZM1210.53 124.45V121.7L1218.71 110H1222.78V121.4H1224.98V124.45H1222.78V128H1219.28V124.45H1210.53ZM1219.51 113.75L1214.38 121.4H1219.51V113.75ZM1242.94 104.325L1236.19 132.525H1232.77L1239.52 104.325H1242.94ZM1262.88 112.425L1256.23 128H1252.68L1259.38 112.825H1250.83V109.825H1262.88V112.425ZM1277.36 128.175C1276.14 128.175 1275.04 127.967 1274.06 127.55C1273.09 127.133 1272.33 126.533 1271.76 125.75C1271.19 124.967 1270.9 124.042 1270.88 122.975H1274.63C1274.68 123.692 1274.93 124.258 1275.38 124.675C1275.85 125.092 1276.48 125.3 1277.28 125.3C1278.1 125.3 1278.74 125.108 1279.21 124.725C1279.68 124.325 1279.91 123.808 1279.91 123.175C1279.91 122.658 1279.75 122.233 1279.43 121.9C1279.12 121.567 1278.72 121.308 1278.23 121.125C1277.77 120.925 1277.12 120.708 1276.28 120.475C1275.15 120.142 1274.23 119.817 1273.51 119.5C1272.81 119.167 1272.2 118.675 1271.68 118.025C1271.18 117.358 1270.93 116.475 1270.93 115.375C1270.93 114.342 1271.19 113.442 1271.71 112.675C1272.23 111.908 1272.95 111.325 1273.88 110.925C1274.82 110.508 1275.88 110.3 1277.08 110.3C1278.88 110.3 1280.34 110.742 1281.46 111.625C1282.59 112.492 1283.22 113.708 1283.33 115.275H1279.48C1279.45 114.675 1279.19 114.183 1278.71 113.8C1278.24 113.4 1277.62 113.2 1276.83 113.2C1276.15 113.2 1275.6 113.375 1275.18 113.725C1274.78 114.075 1274.58 114.583 1274.58 115.25C1274.58 115.717 1274.73 116.108 1275.03 116.425C1275.35 116.725 1275.73 116.975 1276.18 117.175C1276.65 117.358 1277.3 117.575 1278.13 117.825C1279.27 118.158 1280.19 118.492 1280.91 118.825C1281.63 119.158 1282.24 119.658 1282.76 120.325C1283.28 120.992 1283.53 121.867 1283.53 122.95C1283.53 123.883 1283.29 124.75 1282.81 125.55C1282.33 126.35 1281.62 126.992 1280.68 127.475C1279.75 127.942 1278.64 128.175 1277.36 128.175ZM1299.64 114.15V128H1296.12V126.25C1295.67 126.85 1295.08 127.325 1294.34 127.675C1293.63 128.008 1292.84 128.175 1291.99 128.175C1290.91 128.175 1289.95 127.95 1289.12 127.5C1288.29 127.033 1287.63 126.358 1287.14 125.475C1286.68 124.575 1286.44 123.508 1286.44 122.275V114.15H1289.94V121.775C1289.94 122.875 1290.22 123.725 1290.77 124.325C1291.32 124.908 1292.07 125.2 1293.02 125.2C1293.99 125.2 1294.74 124.908 1295.29 124.325C1295.84 123.725 1296.12 122.875 1296.12 121.775V114.15H1299.64ZM1306.6 116.15C1307.05 115.517 1307.66 114.992 1308.45 114.575C1309.25 114.142 1310.16 113.925 1311.17 113.925C1312.36 113.925 1313.42 114.217 1314.37 114.8C1315.34 115.383 1316.1 116.217 1316.65 117.3C1317.21 118.367 1317.5 119.608 1317.5 121.025C1317.5 122.442 1317.21 123.7 1316.65 124.8C1316.1 125.883 1315.34 126.725 1314.37 127.325C1313.42 127.925 1312.36 128.225 1311.17 128.225C1310.16 128.225 1309.26 128.017 1308.47 127.6C1307.71 127.183 1307.08 126.658 1306.6 126.025V134.6H1303.1V114.15H1306.6V116.15ZM1313.92 121.025C1313.92 120.192 1313.75 119.475 1313.4 118.875C1313.06 118.258 1312.61 117.792 1312.05 117.475C1311.5 117.158 1310.9 117 1310.25 117C1309.61 117 1309.01 117.167 1308.45 117.5C1307.9 117.817 1307.45 118.283 1307.1 118.9C1306.76 119.517 1306.6 120.242 1306.6 121.075C1306.6 121.908 1306.76 122.633 1307.1 123.25C1307.45 123.867 1307.9 124.342 1308.45 124.675C1309.01 124.992 1309.61 125.15 1310.25 125.15C1310.9 125.15 1311.5 124.983 1312.05 124.65C1312.61 124.317 1313.06 123.842 1313.4 123.225C1313.75 122.608 1313.92 121.875 1313.92 121.025ZM1323.54 116.15C1323.99 115.517 1324.61 114.992 1325.39 114.575C1326.19 114.142 1327.1 113.925 1328.12 113.925C1329.3 113.925 1330.37 114.217 1331.32 114.8C1332.28 115.383 1333.04 116.217 1333.59 117.3C1334.16 118.367 1334.44 119.608 1334.44 121.025C1334.44 122.442 1334.16 123.7 1333.59 124.8C1333.04 125.883 1332.28 126.725 1331.32 127.325C1330.37 127.925 1329.3 128.225 1328.12 128.225C1327.1 128.225 1326.2 128.017 1325.42 127.6C1324.65 127.183 1324.02 126.658 1323.54 126.025V134.6H1320.04V114.15H1323.54V116.15ZM1330.87 121.025C1330.87 120.192 1330.69 119.475 1330.34 118.875C1330.01 118.258 1329.56 117.792 1328.99 117.475C1328.44 117.158 1327.84 117 1327.19 117C1326.56 117 1325.96 117.167 1325.39 117.5C1324.84 117.817 1324.39 118.283 1324.04 118.9C1323.71 119.517 1323.54 120.242 1323.54 121.075C1323.54 121.908 1323.71 122.633 1324.04 123.25C1324.39 123.867 1324.84 124.342 1325.39 124.675C1325.96 124.992 1326.56 125.15 1327.19 125.15C1327.84 125.15 1328.44 124.983 1328.99 124.65C1329.56 124.317 1330.01 123.842 1330.34 123.225C1330.69 122.608 1330.87 121.875 1330.87 121.025ZM1343.13 128.225C1341.8 128.225 1340.6 127.933 1339.53 127.35C1338.47 126.75 1337.63 125.908 1337.01 124.825C1336.41 123.742 1336.11 122.492 1336.11 121.075C1336.11 119.658 1336.42 118.408 1337.03 117.325C1337.67 116.242 1338.53 115.408 1339.61 114.825C1340.69 114.225 1341.9 113.925 1343.23 113.925C1344.57 113.925 1345.78 114.225 1346.86 114.825C1347.94 115.408 1348.79 116.242 1349.41 117.325C1350.04 118.408 1350.36 119.658 1350.36 121.075C1350.36 122.492 1350.03 123.742 1349.38 124.825C1348.75 125.908 1347.88 126.75 1346.78 127.35C1345.7 127.933 1344.48 128.225 1343.13 128.225ZM1343.13 125.175C1343.77 125.175 1344.36 125.025 1344.91 124.725C1345.48 124.408 1345.93 123.942 1346.26 123.325C1346.59 122.708 1346.76 121.958 1346.76 121.075C1346.76 119.758 1346.41 118.75 1345.71 118.05C1345.03 117.333 1344.18 116.975 1343.18 116.975C1342.18 116.975 1341.34 117.333 1340.66 118.05C1339.99 118.75 1339.66 119.758 1339.66 121.075C1339.66 122.392 1339.98 123.408 1340.63 124.125C1341.3 124.825 1342.13 125.175 1343.13 125.175ZM1356.43 116.3C1356.88 115.567 1357.46 114.992 1358.18 114.575C1358.91 114.158 1359.74 113.95 1360.68 113.95V117.625H1359.75C1358.65 117.625 1357.82 117.883 1357.25 118.4C1356.7 118.917 1356.43 119.817 1356.43 121.1V128H1352.93V114.15H1356.43V116.3ZM1367.11 117.025V123.725C1367.11 124.192 1367.22 124.533 1367.43 124.75C1367.67 124.95 1368.05 125.05 1368.58 125.05H1370.21V128H1368.01C1365.06 128 1363.58 126.567 1363.58 123.7V117.025H1361.93V114.15H1363.58V110.725H1367.11V114.15H1370.21V117.025H1367.11Z" fill="#242424"/>
<path d="M1201.04 148.1C1202.52 148.1 1203.81 148.387 1204.92 148.96C1206.04 149.52 1206.9 150.333 1207.5 151.4C1208.11 152.453 1208.42 153.687 1208.42 155.1C1208.42 156.513 1208.11 157.74 1207.5 158.78C1206.9 159.82 1206.04 160.62 1204.92 161.18C1203.81 161.727 1202.52 162 1201.04 162H1196.5V148.1H1201.04ZM1201.04 160.14C1202.67 160.14 1203.91 159.7 1204.78 158.82C1205.65 157.94 1206.08 156.7 1206.08 155.1C1206.08 153.487 1205.65 152.227 1204.78 151.32C1203.91 150.413 1202.67 149.96 1201.04 149.96H1198.78V160.14H1201.04ZM1220.78 156.22C1220.78 156.633 1220.75 157.007 1220.7 157.34H1212.28C1212.35 158.22 1212.67 158.927 1213.26 159.46C1213.85 159.993 1214.57 160.26 1215.42 160.26C1216.65 160.26 1217.51 159.747 1218.02 158.72H1220.48C1220.15 159.733 1219.54 160.567 1218.66 161.22C1217.79 161.86 1216.71 162.18 1215.42 162.18C1214.37 162.18 1213.42 161.947 1212.58 161.48C1211.75 161 1211.1 160.333 1210.62 159.48C1210.15 158.613 1209.92 157.613 1209.92 156.48C1209.92 155.347 1210.15 154.353 1210.6 153.5C1211.07 152.633 1211.71 151.967 1212.54 151.5C1213.38 151.033 1214.34 150.8 1215.42 150.8C1216.46 150.8 1217.39 151.027 1218.2 151.48C1219.01 151.933 1219.65 152.573 1220.1 153.4C1220.55 154.213 1220.78 155.153 1220.78 156.22ZM1218.4 155.5C1218.39 154.66 1218.09 153.987 1217.5 153.48C1216.91 152.973 1216.19 152.72 1215.32 152.72C1214.53 152.72 1213.86 152.973 1213.3 153.48C1212.74 153.973 1212.41 154.647 1212.3 155.5H1218.4ZM1222.26 156.44C1222.26 155.333 1222.49 154.353 1222.94 153.5C1223.41 152.647 1224.04 151.987 1224.82 151.52C1225.62 151.04 1226.51 150.8 1227.48 150.8C1228.2 150.8 1228.91 150.96 1229.6 151.28C1230.31 151.587 1230.87 152 1231.28 152.52V147.2H1233.58V162H1231.28V160.34C1230.91 160.873 1230.39 161.313 1229.72 161.66C1229.07 162.007 1228.32 162.18 1227.46 162.18C1226.5 162.18 1225.62 161.94 1224.82 161.46C1224.04 160.967 1223.41 160.287 1222.94 159.42C1222.49 158.54 1222.26 157.547 1222.26 156.44ZM1231.28 156.48C1231.28 155.72 1231.12 155.06 1230.8 154.5C1230.5 153.94 1230.09 153.513 1229.58 153.22C1229.08 152.927 1228.53 152.78 1227.94 152.78C1227.36 152.78 1226.81 152.927 1226.3 153.22C1225.8 153.5 1225.38 153.92 1225.06 154.48C1224.76 155.027 1224.6 155.68 1224.6 156.44C1224.6 157.2 1224.76 157.867 1225.06 158.44C1225.38 159.013 1225.8 159.453 1226.3 159.76C1226.82 160.053 1227.37 160.2 1227.94 160.2C1228.53 160.2 1229.08 160.053 1229.58 159.76C1230.09 159.467 1230.5 159.04 1230.8 158.48C1231.12 157.907 1231.28 157.24 1231.28 156.48ZM1237.74 149.52C1237.32 149.52 1236.98 149.38 1236.7 149.1C1236.42 148.82 1236.28 148.473 1236.28 148.06C1236.28 147.647 1236.42 147.3 1236.7 147.02C1236.98 146.74 1237.32 146.6 1237.74 146.6C1238.14 146.6 1238.48 146.74 1238.76 147.02C1239.04 147.3 1239.18 147.647 1239.18 148.06C1239.18 148.473 1239.04 148.82 1238.76 149.1C1238.48 149.38 1238.14 149.52 1237.74 149.52ZM1238.86 150.98V162H1236.58V150.98H1238.86ZM1241.09 156.48C1241.09 155.347 1241.32 154.353 1241.77 153.5C1242.24 152.633 1242.88 151.967 1243.69 151.5C1244.5 151.033 1245.44 150.8 1246.49 150.8C1247.82 150.8 1248.92 151.12 1249.79 151.76C1250.67 152.387 1251.26 153.287 1251.57 154.46H1249.11C1248.91 153.913 1248.59 153.487 1248.15 153.18C1247.71 152.873 1247.16 152.72 1246.49 152.72C1245.56 152.72 1244.81 153.053 1244.25 153.72C1243.7 154.373 1243.43 155.293 1243.43 156.48C1243.43 157.667 1243.7 158.593 1244.25 159.26C1244.81 159.927 1245.56 160.26 1246.49 160.26C1247.81 160.26 1248.68 159.68 1249.11 158.52H1251.57C1251.25 159.64 1250.65 160.533 1249.77 161.2C1248.89 161.853 1247.8 162.18 1246.49 162.18C1245.44 162.18 1244.5 161.947 1243.69 161.48C1242.88 161 1242.24 160.333 1241.77 159.48C1241.32 158.613 1241.09 157.613 1241.09 156.48ZM1253.08 156.44C1253.08 155.333 1253.31 154.353 1253.76 153.5C1254.23 152.647 1254.86 151.987 1255.64 151.52C1256.44 151.04 1257.32 150.8 1258.28 150.8C1259.15 150.8 1259.9 150.973 1260.54 151.32C1261.2 151.653 1261.72 152.073 1262.1 152.58V150.98H1264.4V162H1262.1V160.36C1261.72 160.88 1261.19 161.313 1260.52 161.66C1259.86 162.007 1259.1 162.18 1258.24 162.18C1257.3 162.18 1256.43 161.94 1255.64 161.46C1254.86 160.967 1254.23 160.287 1253.76 159.42C1253.31 158.54 1253.08 157.547 1253.08 156.44ZM1262.1 156.48C1262.1 155.72 1261.94 155.06 1261.62 154.5C1261.32 153.94 1260.91 153.513 1260.4 153.22C1259.9 152.927 1259.35 152.78 1258.76 152.78C1258.18 152.78 1257.63 152.927 1257.12 153.22C1256.62 153.5 1256.2 153.92 1255.88 154.48C1255.58 155.027 1255.42 155.68 1255.42 156.44C1255.42 157.2 1255.58 157.867 1255.88 158.44C1256.2 159.013 1256.62 159.453 1257.12 159.76C1257.64 160.053 1258.19 160.2 1258.76 160.2C1259.35 160.2 1259.9 160.053 1260.4 159.76C1260.91 159.467 1261.32 159.04 1261.62 158.48C1261.94 157.907 1262.1 157.24 1262.1 156.48ZM1270.06 152.84V158.94C1270.06 159.353 1270.15 159.653 1270.34 159.84C1270.54 160.013 1270.87 160.1 1271.34 160.1H1272.74V162H1270.94C1269.91 162 1269.13 161.76 1268.58 161.28C1268.03 160.8 1267.76 160.02 1267.76 158.94V152.84H1266.46V150.98H1267.76V148.24H1270.06V150.98H1272.74V152.84H1270.06ZM1284.94 156.22C1284.94 156.633 1284.91 157.007 1284.86 157.34H1276.44C1276.51 158.22 1276.83 158.927 1277.42 159.46C1278.01 159.993 1278.73 160.26 1279.58 160.26C1280.81 160.26 1281.67 159.747 1282.18 158.72H1284.64C1284.31 159.733 1283.7 160.567 1282.82 161.22C1281.95 161.86 1280.87 162.18 1279.58 162.18C1278.53 162.18 1277.58 161.947 1276.74 161.48C1275.91 161 1275.26 160.333 1274.78 159.48C1274.31 158.613 1274.08 157.613 1274.08 156.48C1274.08 155.347 1274.31 154.353 1274.76 153.5C1275.23 152.633 1275.87 151.967 1276.7 151.5C1277.54 151.033 1278.5 150.8 1279.58 150.8C1280.62 150.8 1281.55 151.027 1282.36 151.48C1283.17 151.933 1283.81 152.573 1284.26 153.4C1284.71 154.213 1284.94 155.153 1284.94 156.22ZM1282.56 155.5C1282.55 154.66 1282.25 153.987 1281.66 153.48C1281.07 152.973 1280.35 152.72 1279.48 152.72C1278.69 152.72 1278.02 152.973 1277.46 153.48C1276.9 153.973 1276.57 154.647 1276.46 155.5H1282.56ZM1286.42 156.44C1286.42 155.333 1286.65 154.353 1287.1 153.5C1287.57 152.647 1288.2 151.987 1288.98 151.52C1289.78 151.04 1290.67 150.8 1291.64 150.8C1292.36 150.8 1293.07 150.96 1293.76 151.28C1294.47 151.587 1295.03 152 1295.44 152.52V147.2H1297.74V162H1295.44V160.34C1295.07 160.873 1294.55 161.313 1293.88 161.66C1293.23 162.007 1292.48 162.18 1291.62 162.18C1290.66 162.18 1289.78 161.94 1288.98 161.46C1288.2 160.967 1287.57 160.287 1287.1 159.42C1286.65 158.54 1286.42 157.547 1286.42 156.44ZM1295.44 156.48C1295.44 155.72 1295.28 155.06 1294.96 154.5C1294.66 153.94 1294.25 153.513 1293.74 153.22C1293.24 152.927 1292.69 152.78 1292.1 152.78C1291.52 152.78 1290.97 152.927 1290.46 153.22C1289.96 153.5 1289.54 153.92 1289.22 154.48C1288.92 155.027 1288.76 155.68 1288.76 156.44C1288.76 157.2 1288.92 157.867 1289.22 158.44C1289.54 159.013 1289.96 159.453 1290.46 159.76C1290.98 160.053 1291.53 160.2 1292.1 160.2C1292.69 160.2 1293.24 160.053 1293.74 159.76C1294.25 159.467 1294.66 159.04 1294.96 158.48C1295.28 157.907 1295.44 157.24 1295.44 156.48ZM1309.93 162.18C1309.07 162.18 1308.29 162.027 1307.59 161.72C1306.91 161.4 1306.37 160.973 1305.97 160.44C1305.57 159.893 1305.36 159.287 1305.33 158.62H1307.69C1307.73 159.087 1307.95 159.48 1308.35 159.8C1308.77 160.107 1309.28 160.26 1309.89 160.26C1310.53 160.26 1311.03 160.14 1311.37 159.9C1311.73 159.647 1311.91 159.327 1311.91 158.94C1311.91 158.527 1311.71 158.22 1311.31 158.02C1310.93 157.82 1310.31 157.6 1309.45 157.36C1308.63 157.133 1307.95 156.913 1307.43 156.7C1306.91 156.487 1306.46 156.16 1306.07 155.72C1305.7 155.28 1305.51 154.7 1305.51 153.98C1305.51 153.393 1305.69 152.86 1306.03 152.38C1306.38 151.887 1306.87 151.5 1307.51 151.22C1308.17 150.94 1308.91 150.8 1309.75 150.8C1311.01 150.8 1312.01 151.12 1312.77 151.76C1313.55 152.387 1313.96 153.247 1314.01 154.34H1311.73C1311.69 153.847 1311.49 153.453 1311.13 153.16C1310.77 152.867 1310.29 152.72 1309.67 152.72C1309.07 152.72 1308.61 152.833 1308.29 153.06C1307.97 153.287 1307.81 153.587 1307.81 153.96C1307.81 154.253 1307.92 154.5 1308.13 154.7C1308.35 154.9 1308.61 155.06 1308.91 155.18C1309.22 155.287 1309.67 155.427 1310.27 155.6C1311.07 155.813 1311.73 156.033 1312.23 156.26C1312.75 156.473 1313.2 156.793 1313.57 157.22C1313.95 157.647 1314.14 158.213 1314.15 158.92C1314.15 159.547 1313.98 160.107 1313.63 160.6C1313.29 161.093 1312.79 161.48 1312.15 161.76C1311.53 162.04 1310.79 162.18 1309.93 162.18ZM1326.6 150.98V162H1324.32V160.7C1323.96 161.153 1323.48 161.513 1322.9 161.78C1322.32 162.033 1321.71 162.16 1321.06 162.16C1320.19 162.16 1319.41 161.98 1318.72 161.62C1318.04 161.26 1317.5 160.727 1317.1 160.02C1316.71 159.313 1316.52 158.46 1316.52 157.46V150.98H1318.78V157.12C1318.78 158.107 1319.02 158.867 1319.52 159.4C1320.01 159.92 1320.68 160.18 1321.54 160.18C1322.39 160.18 1323.06 159.92 1323.56 159.4C1324.06 158.867 1324.32 158.107 1324.32 157.12V150.98H1326.6ZM1331.89 152.6C1332.27 152.093 1332.8 151.667 1333.47 151.32C1334.13 150.973 1334.89 150.8 1335.73 150.8C1336.69 150.8 1337.56 151.04 1338.35 151.52C1339.15 151.987 1339.77 152.647 1340.23 153.5C1340.68 154.353 1340.91 155.333 1340.91 156.44C1340.91 157.547 1340.68 158.54 1340.23 159.42C1339.77 160.287 1339.15 160.967 1338.35 161.46C1337.56 161.94 1336.69 162.18 1335.73 162.18C1334.89 162.18 1334.14 162.013 1333.49 161.68C1332.83 161.333 1332.3 160.907 1331.89 160.4V167.24H1329.61V150.98H1331.89V152.6ZM1338.59 156.44C1338.59 155.68 1338.43 155.027 1338.11 154.48C1337.8 153.92 1337.39 153.5 1336.87 153.22C1336.36 152.927 1335.81 152.78 1335.23 152.78C1334.65 152.78 1334.11 152.927 1333.59 153.22C1333.08 153.513 1332.67 153.94 1332.35 154.5C1332.04 155.06 1331.89 155.72 1331.89 156.48C1331.89 157.24 1332.04 157.907 1332.35 158.48C1332.67 159.04 1333.08 159.467 1333.59 159.76C1334.11 160.053 1334.65 160.2 1335.23 160.2C1335.81 160.2 1336.36 160.053 1336.87 159.76C1337.39 159.453 1337.8 159.013 1338.11 158.44C1338.43 157.867 1338.59 157.2 1338.59 156.44ZM1345.44 152.6C1345.83 152.093 1346.35 151.667 1347.02 151.32C1347.69 150.973 1348.44 150.8 1349.28 150.8C1350.24 150.8 1351.11 151.04 1351.9 151.52C1352.7 151.987 1353.33 152.647 1353.78 153.5C1354.23 154.353 1354.46 155.333 1354.46 156.44C1354.46 157.547 1354.23 158.54 1353.78 159.42C1353.33 160.287 1352.7 160.967 1351.9 161.46C1351.11 161.94 1350.24 162.18 1349.28 162.18C1348.44 162.18 1347.69 162.013 1347.04 161.68C1346.39 161.333 1345.85 160.907 1345.44 160.4V167.24H1343.16V150.98H1345.44V152.6ZM1352.14 156.44C1352.14 155.68 1351.98 155.027 1351.66 154.48C1351.35 153.92 1350.94 153.5 1350.42 153.22C1349.91 152.927 1349.37 152.78 1348.78 152.78C1348.21 152.78 1347.66 152.927 1347.14 153.22C1346.63 153.513 1346.22 153.94 1345.9 154.5C1345.59 155.06 1345.44 155.72 1345.44 156.48C1345.44 157.24 1345.59 157.907 1345.9 158.48C1346.22 159.04 1346.63 159.467 1347.14 159.76C1347.66 160.053 1348.21 160.2 1348.78 160.2C1349.37 160.2 1349.91 160.053 1350.42 159.76C1350.94 159.453 1351.35 159.013 1351.66 158.44C1351.98 157.867 1352.14 157.2 1352.14 156.44ZM1361.49 162.18C1360.45 162.18 1359.51 161.947 1358.67 161.48C1357.83 161 1357.17 160.333 1356.69 159.48C1356.21 158.613 1355.97 157.613 1355.97 156.48C1355.97 155.36 1356.22 154.367 1356.71 153.5C1357.21 152.633 1357.88 151.967 1358.73 151.5C1359.59 151.033 1360.54 150.8 1361.59 150.8C1362.65 150.8 1363.6 151.033 1364.45 151.5C1365.31 151.967 1365.98 152.633 1366.47 153.5C1366.97 154.367 1367.21 155.36 1367.21 156.48C1367.21 157.6 1366.96 158.593 1366.45 159.46C1365.95 160.327 1365.25 161 1364.37 161.48C1363.51 161.947 1362.55 162.18 1361.49 162.18ZM1361.49 160.2C1362.08 160.2 1362.63 160.06 1363.13 159.78C1363.65 159.5 1364.07 159.08 1364.39 158.52C1364.71 157.96 1364.87 157.28 1364.87 156.48C1364.87 155.68 1364.72 155.007 1364.41 154.46C1364.11 153.9 1363.7 153.48 1363.19 153.2C1362.69 152.92 1362.14 152.78 1361.55 152.78C1360.97 152.78 1360.42 152.92 1359.91 153.2C1359.42 153.48 1359.03 153.9 1358.73 154.46C1358.44 155.007 1358.29 155.68 1358.29 156.48C1358.29 157.667 1358.59 158.587 1359.19 159.24C1359.81 159.88 1360.57 160.2 1361.49 160.2ZM1371.75 152.58C1372.08 152.02 1372.52 151.587 1373.07 151.28C1373.63 150.96 1374.29 150.8 1375.05 150.8V153.16H1374.47C1373.58 153.16 1372.9 153.387 1372.43 153.84C1371.98 154.293 1371.75 155.08 1371.75 156.2V162H1369.47V150.98H1371.75V152.58ZM1379.8 152.84V158.94C1379.8 159.353 1379.9 159.653 1380.08 159.84C1380.28 160.013 1380.62 160.1 1381.08 160.1H1382.48V162H1380.68C1379.66 162 1378.87 161.76 1378.32 161.28C1377.78 160.8 1377.5 160.02 1377.5 158.94V152.84H1376.2V150.98H1377.5V148.24H1379.8V150.98H1382.48V152.84H1379.8Z" fill="#898989"/>
<defs>
<clipPath id="clip0_0_188">
<rect width="60" height="60" fill="white" transform="translate(442.333 105)"/>
</clipPath>
<clipPath id="clip1_0_188">
<rect width="60" height="60" fill="white" transform="translate(825.667 105)"/>
</clipPath>
<clipPath id="clip2_0_188">
<rect width="60" height="60" fill="white" transform="translate(1125 105)"/>
</clipPath>
</defs>
</svg>
