<svg width="85" height="30" viewBox="0 0 85 30" fill="none" xmlns="http://www.w3.org/2000/svg">
<path d="M46.42 8.06V9.54H40.36V14.24H45.28V15.72H40.36V22H38.54V8.06H46.42ZM49.5581 9.26C49.2115 9.26 48.9181 9.14 48.6781 8.9C48.4381 8.66 48.3181 8.36667 48.3181 8.02C48.3181 7.67333 48.4381 7.38 48.6781 7.14C48.9181 6.9 49.2115 6.78 49.5581 6.78C49.8915 6.78 50.1715 6.9 50.3981 7.14C50.6381 7.38 50.7581 7.67333 50.7581 8.02C50.7581 8.36667 50.6381 8.66 50.3981 8.9C50.1715 9.14 49.8915 9.26 49.5581 9.26ZM50.4381 11.04V22H48.6181V11.04H50.4381ZM55.36 7.2V22H53.54V7.2H55.36ZM60.6819 12.54V19C60.6819 19.5333 60.7952 19.9133 61.0219 20.14C61.2485 20.3533 61.6419 20.46 62.2019 20.46H63.5419V22H61.9019C60.8885 22 60.1285 21.7667 59.6219 21.3C59.1152 20.8333 58.8619 20.0667 58.8619 19V12.54H57.4419V11.04H58.8619V8.28H60.6819V11.04H63.5419V12.54H60.6819ZM75.747 16.1C75.747 16.4467 75.727 16.8133 75.687 17.2H66.927C66.9937 18.28 67.3604 19.1267 68.027 19.74C68.707 20.34 69.527 20.64 70.487 20.64C71.2737 20.64 71.927 20.46 72.447 20.1C72.9804 19.7267 73.3537 19.2333 73.567 18.62H75.527C75.2337 19.6733 74.647 20.5333 73.767 21.2C72.887 21.8533 71.7937 22.18 70.487 22.18C69.447 22.18 68.5137 21.9467 67.687 21.48C66.8737 21.0133 66.2337 20.3533 65.767 19.5C65.3004 18.6333 65.067 17.6333 65.067 16.5C65.067 15.3667 65.2937 14.3733 65.747 13.52C66.2004 12.6667 66.8337 12.0133 67.647 11.56C68.4737 11.0933 69.4204 10.86 70.487 10.86C71.527 10.86 72.447 11.0867 73.247 11.54C74.047 11.9933 74.6604 12.62 75.087 13.42C75.527 14.2067 75.747 15.1 75.747 16.1ZM73.867 15.72C73.867 15.0267 73.7137 14.4333 73.407 13.94C73.1004 13.4333 72.6804 13.0533 72.147 12.8C71.627 12.5333 71.047 12.4 70.407 12.4C69.487 12.4 68.7004 12.6933 68.047 13.28C67.407 13.8667 67.0404 14.68 66.947 15.72H73.867ZM79.9694 12.82C80.2894 12.1933 80.7427 11.7067 81.3294 11.36C81.9294 11.0133 82.656 10.84 83.5094 10.84V12.72H83.0294C80.9894 12.72 79.9694 13.8267 79.9694 16.04V22H78.1494V11.04H79.9694V12.82Z" fill="black"/>
<path d="M22.0238 9.14292H8.92858M6.54763 9.14292H2.9762M22.0238 21.0477H8.92858M6.54763 21.0477H2.9762M16.0714 15.0953H2.9762M22.0238 15.0953H18.4524M7.7381 6.76196C8.05384 6.76196 8.35664 6.88739 8.5799 7.11065C8.80315 7.3339 8.92858 7.63671 8.92858 7.95244V10.3334C8.92858 10.6491 8.80315 10.9519 8.5799 11.1752C8.35664 11.3984 8.05384 11.5239 7.7381 11.5239C7.42237 11.5239 7.11957 11.3984 6.89631 11.1752C6.67305 10.9519 6.54763 10.6491 6.54763 10.3334V7.95244C6.54763 7.63671 6.67305 7.3339 6.89631 7.11065C7.11957 6.88739 7.42237 6.76196 7.7381 6.76196V6.76196ZM7.7381 18.6667C8.05384 18.6667 8.35664 18.7921 8.5799 19.0154C8.80315 19.2387 8.92858 19.5415 8.92858 19.8572V22.2382C8.92858 22.5539 8.80315 22.8567 8.5799 23.0799C8.35664 23.3032 8.05384 23.4286 7.7381 23.4286C7.42237 23.4286 7.11957 23.3032 6.89631 23.0799C6.67305 22.8567 6.54763 22.5539 6.54763 22.2382V19.8572C6.54763 19.5415 6.67305 19.2387 6.89631 19.0154C7.11957 18.7921 7.42237 18.6667 7.7381 18.6667ZM17.2619 12.7143C17.5776 12.7143 17.8804 12.8398 18.1037 13.063C18.327 13.2863 18.4524 13.5891 18.4524 13.9048V16.2858C18.4524 16.6015 18.327 16.9043 18.1037 17.1276C17.8804 17.3508 17.5776 17.4762 17.2619 17.4762C16.9462 17.4762 16.6434 17.3508 16.4201 17.1276C16.1969 16.9043 16.0714 16.6015 16.0714 16.2858V13.9048C16.0714 13.5891 16.1969 13.2863 16.4201 13.063C16.6434 12.8398 16.9462 12.7143 17.2619 12.7143V12.7143Z" stroke="black" stroke-linecap="round" stroke-linejoin="round"/>
</svg>
