<svg width="17" height="15" viewBox="0 0 17 15" fill="none" xmlns="http://www.w3.org/2000/svg">
<path fill-rule="evenodd" clip-rule="evenodd" d="M6.11059 7.74603C6.16575 7.70426 6.23127 7.67112 6.3034 7.64851C6.37554 7.6259 6.45287 7.61426 6.53097 7.61426C6.60907 7.61426 6.6864 7.6259 6.75853 7.64851C6.83067 7.67112 6.89619 7.70426 6.95134 7.74603L8.31222 8.77492L9.67309 7.74603C9.78458 7.66181 9.9358 7.61449 10.0935 7.61449C10.2511 7.61449 10.4024 7.66181 10.5138 7.74603C10.6253 7.83024 10.688 7.94447 10.688 8.06357C10.688 8.18268 10.6253 8.2969 10.5138 8.38112L9.15178 9.40911L10.5138 10.4371C10.6253 10.5213 10.688 10.6356 10.688 10.7547C10.688 10.8738 10.6253 10.988 10.5138 11.0722C10.4024 11.1564 10.2511 11.2037 10.0935 11.2037C9.9358 11.2037 9.78458 11.1564 9.67309 11.0722L8.31222 10.0433L6.95134 11.0722C6.83985 11.1564 6.68864 11.2037 6.53097 11.2037C6.3733 11.2037 6.22208 11.1564 6.11059 11.0722C5.9991 10.988 5.93647 10.8738 5.93647 10.7547C5.93647 10.6356 5.9991 10.5213 6.11059 10.4371L7.47266 9.40911L6.11059 8.38112C6.0553 8.33946 6.01143 8.28996 5.9815 8.23547C5.95156 8.18098 5.93616 8.12257 5.93616 8.06357C5.93616 8.00458 5.95156 7.94616 5.9815 7.89167C6.01143 7.83718 6.0553 7.78769 6.11059 7.74603Z" fill="#9F9F9F"/>
<path d="M8.3125 1.33575C9.09986 1.33575 9.85497 1.57202 10.4117 1.99258C10.9685 2.41314 11.2812 2.98355 11.2812 3.57831V4.02683H5.34375V3.57831C5.34375 2.98355 5.65653 2.41314 6.21328 1.99258C6.77003 1.57202 7.52514 1.33575 8.3125 1.33575ZM12.4688 4.02683V3.57831C12.4688 2.74564 12.0309 1.94707 11.2514 1.35829C10.472 0.769498 9.41481 0.438721 8.3125 0.438721C7.21019 0.438721 6.15304 0.769498 5.37359 1.35829C4.59414 1.94707 4.15625 2.74564 4.15625 3.57831V4.02683H0V12.9971C0 13.4729 0.250223 13.9292 0.695621 14.2657C1.14102 14.6021 1.74511 14.7912 2.375 14.7912H14.25C14.8799 14.7912 15.484 14.6021 15.9294 14.2657C16.3748 13.9292 16.625 13.4729 16.625 12.9971V4.02683H12.4688ZM1.1875 4.92386H15.4375V12.9971C15.4375 13.235 15.3124 13.4632 15.0897 13.6314C14.867 13.7996 14.5649 13.8941 14.25 13.8941H2.375C2.06006 13.8941 1.75801 13.7996 1.53531 13.6314C1.31261 13.4632 1.1875 13.235 1.1875 12.9971V4.92386Z" fill="#9F9F9F"/>
</svg>
