<svg width="28" height="28" viewBox="0 0 28 28" fill="none" xmlns="http://www.w3.org/2000/svg">
<path d="M23.3333 14V8.16663H25.6667V15.1666H23.3333M23.3333 19.8333H25.6667V17.5H23.3333M11.6667 15.1666C14.7817 15.1666 21 16.73 21 19.8333V23.3333H2.33334V19.8333C2.33334 16.73 8.55168 15.1666 11.6667 15.1666ZM11.6667 4.66663C12.9044 4.66663 14.0913 5.15829 14.9665 6.03346C15.8417 6.90863 16.3333 8.09562 16.3333 9.33329C16.3333 10.571 15.8417 11.758 14.9665 12.6331C14.0913 13.5083 12.9044 14 11.6667 14C10.429 14 9.24202 13.5083 8.36685 12.6331C7.49168 11.758 7.00001 10.571 7.00001 9.33329C7.00001 8.09562 7.49168 6.90863 8.36685 6.03346C9.24202 5.15829 10.429 4.66663 11.6667 4.66663ZM11.6667 17.3833C8.20168 17.3833 4.55001 19.0866 4.55001 19.8333V21.1166H18.7833V19.8333C18.7833 19.0866 15.1317 17.3833 11.6667 17.3833ZM11.6667 6.88329C11.0169 6.88329 10.3937 7.14142 9.93427 7.60088C9.4748 8.06034 9.21668 8.68351 9.21668 9.33329C9.21668 9.98307 9.4748 10.6062 9.93427 11.0657C10.3937 11.5252 11.0169 11.7833 11.6667 11.7833C12.3165 11.7833 12.9396 11.5252 13.3991 11.0657C13.8586 10.6062 14.1167 9.98307 14.1167 9.33329C14.1167 8.68351 13.8586 8.06034 13.3991 7.60088C12.9396 7.14142 12.3165 6.88329 11.6667 6.88329Z" fill="black"/>
</svg>
