<svg width="190" height="32" viewBox="0 0 190 32" fill="none" xmlns="http://www.w3.org/2000/svg">
<rect x="0.5" y="0.5" width="189" height="31" rx="9.5" stroke="#D9D9D9"/>
<g clip-path="url(#clip0_218_1420)">
<path d="M41.4864 4.00002C40.1252 4.0919 38.6683 4.9019 37.7664 5.99502C36.977 6.9569 36.3152 8.36877 36.5664 9.83502C36.3414 9.76565 36.137 9.75815 35.8914 9.67002C35.222 9.4319 34.457 9.17502 33.5064 9.17502C31.6183 9.17502 29.6852 10.2981 28.4664 12.175C26.6927 14.9013 27.0489 19.6994 29.7414 23.8C30.2158 24.52 30.7689 25.3056 31.4514 25.93C32.1339 26.5544 32.9589 27.0306 33.9264 27.04C34.7533 27.0494 35.3289 26.7738 35.8464 26.545C36.3639 26.3163 36.8458 26.1138 37.7514 26.11C37.757 26.11 37.7608 26.11 37.7664 26.11C38.6683 26.1025 39.1352 26.3013 39.6414 26.53C40.1477 26.7588 40.7177 27.0475 41.5464 27.04C42.5327 27.0325 43.3708 26.4925 44.0664 25.825C44.762 25.1575 45.3339 24.3382 45.8064 23.62C46.4833 22.5888 46.7552 22.0263 47.2764 20.875C47.3308 20.755 47.3327 20.6163 47.2802 20.4944C47.2295 20.3725 47.1302 20.2769 47.0064 20.23C45.3002 19.585 44.327 18.0756 44.1864 16.48C44.0458 14.8844 44.7208 13.2419 46.4214 12.31C46.547 12.2425 46.6352 12.1244 46.6652 11.9856C46.6933 11.8469 46.6595 11.7006 46.5714 11.59C45.3508 10.0731 43.6333 9.17502 41.9514 9.17502C40.8789 9.17502 40.0914 9.42815 39.4464 9.67002C39.3395 9.71127 39.2608 9.70752 39.1614 9.74502C39.8158 9.40002 40.3933 8.9219 40.8264 8.36502C41.6139 7.3544 42.2214 5.91627 41.9964 4.40502C41.9589 4.15752 41.7358 3.98127 41.4864 4.00002ZM40.9764 5.14002C40.9445 6.1094 40.6127 7.05815 40.0614 7.76502C39.4839 8.50752 38.5127 9.02127 37.5714 9.17502C37.5883 8.24315 37.9558 7.27752 38.5164 6.59502C39.1052 5.88252 40.0802 5.36877 40.9764 5.14002ZM33.5064 10.135C33.9264 10.135 34.9014 10.3356 35.5614 10.57C36.2214 10.8044 36.917 11.08 37.7364 11.08C38.537 11.08 39.1708 10.8025 39.7914 10.57C40.412 10.3375 41.0308 10.135 41.9514 10.135C43.1533 10.135 44.4527 10.7594 45.4764 11.845C43.8377 13.0019 43.0708 14.8056 43.2264 16.555C43.382 18.3231 44.447 20.0013 46.1964 20.875C46.1939 20.8805 46.1914 20.8859 46.1889 20.8914C45.8143 21.7073 45.5646 22.2513 45.0114 23.095C44.552 23.7944 44.0064 24.5594 43.4064 25.135C42.8064 25.7106 42.1708 26.0744 41.5314 26.08C40.9145 26.0856 40.5639 25.9019 40.0314 25.66C39.4989 25.4181 38.8108 25.1406 37.7514 25.15C36.6939 25.1556 35.9964 25.4219 35.4564 25.66C34.9164 25.8981 34.562 26.0856 33.9414 26.08C33.2852 26.0744 32.6758 25.7556 32.0964 25.225C31.517 24.6944 30.9939 23.9706 30.5364 23.275C28.0164 19.435 27.8139 14.9238 29.2614 12.7C30.3227 11.0669 33.0864 10.135 33.5064 10.135Z" fill="black"/>
<path d="M33.5064 10.135C33.9264 10.135 34.9014 10.3356 35.5614 10.57C36.2214 10.8044 36.917 11.08 37.7364 11.08C38.537 11.08 39.1708 10.8025 39.7914 10.57C40.412 10.3375 41.0308 10.135 41.9514 10.135C43.1533 10.135 44.4527 10.7594 45.4764 11.845C43.8377 13.0019 43.0708 14.8056 43.2264 16.555C43.382 18.3231 44.447 20.0013 46.1964 20.875L46.1889 20.8914C45.8143 21.7073 45.5646 22.2513 45.0114 23.095C44.552 23.7944 44.0064 24.5594 43.4064 25.135C42.8064 25.7106 42.1708 26.0744 41.5314 26.08C40.9145 26.0856 40.5639 25.9019 40.0314 25.66C39.4989 25.4181 38.8108 25.1406 37.7514 25.15C36.6939 25.1556 35.9964 25.4219 35.4564 25.66C34.9164 25.8981 34.562 26.0856 33.9414 26.08C33.2852 26.0744 32.6758 25.7556 32.0964 25.225C31.517 24.6944 30.9939 23.9706 30.5364 23.275C28.0164 19.435 27.8139 14.9238 29.2614 12.7C30.3227 11.0669 33.0864 10.135 33.5064 10.135Z" fill="black"/>
<path d="M40.9764 5.14002C40.9445 6.1094 40.6127 7.05815 40.0614 7.76502C39.4839 8.50752 38.5127 9.02127 37.5714 9.17502C37.5883 8.24315 37.9558 7.27752 38.5164 6.59502C39.1052 5.88252 40.0802 5.36877 40.9764 5.14002Z" fill="black"/>
</g>
<path d="M61.648 20.084C61.088 20.084 60.584 19.988 60.136 19.796C59.688 19.596 59.336 19.316 59.08 18.956C58.824 18.596 58.696 18.176 58.696 17.696H60.16C60.192 18.056 60.332 18.352 60.58 18.584C60.836 18.816 61.192 18.932 61.648 18.932C62.12 18.932 62.488 18.82 62.752 18.596C63.016 18.364 63.148 18.068 63.148 17.708C63.148 17.428 63.064 17.2 62.896 17.024C62.736 16.848 62.532 16.712 62.284 16.616C62.044 16.52 61.708 16.416 61.276 16.304C60.732 16.16 60.288 16.016 59.944 15.872C59.608 15.72 59.32 15.488 59.08 15.176C58.84 14.864 58.72 14.448 58.72 13.928C58.72 13.448 58.84 13.028 59.08 12.668C59.32 12.308 59.656 12.032 60.088 11.84C60.52 11.648 61.02 11.552 61.588 11.552C62.396 11.552 63.056 11.756 63.568 12.164C64.088 12.564 64.376 13.116 64.432 13.82H62.92C62.896 13.516 62.752 13.256 62.488 13.04C62.224 12.824 61.876 12.716 61.444 12.716C61.052 12.716 60.732 12.816 60.484 13.016C60.236 13.216 60.112 13.504 60.112 13.88C60.112 14.136 60.188 14.348 60.34 14.516C60.5 14.676 60.7 14.804 60.94 14.9C61.18 14.996 61.508 15.1 61.924 15.212C62.476 15.364 62.924 15.516 63.268 15.668C63.62 15.82 63.916 16.056 64.156 16.376C64.404 16.688 64.528 17.108 64.528 17.636C64.528 18.06 64.412 18.46 64.18 18.836C63.956 19.212 63.624 19.516 63.184 19.748C62.752 19.972 62.24 20.084 61.648 20.084ZM66.8382 12.512C66.5902 12.512 66.3822 12.428 66.2142 12.26C66.0462 12.092 65.9622 11.884 65.9622 11.636C65.9622 11.388 66.0462 11.18 66.2142 11.012C66.3822 10.844 66.5902 10.76 66.8382 10.76C67.0782 10.76 67.2822 10.844 67.4502 11.012C67.6182 11.18 67.7022 11.388 67.7022 11.636C67.7022 11.884 67.6182 12.092 67.4502 12.26C67.2822 12.428 67.0782 12.512 66.8382 12.512ZM67.5102 13.388V20H66.1422V13.388H67.5102ZM71.9703 13.28C72.4823 13.28 72.9343 13.384 73.3263 13.592C73.7263 13.792 74.0383 14.044 74.2623 14.348V13.388H75.6423V20.108C75.6423 20.716 75.5143 21.256 75.2583 21.728C75.0023 22.208 74.6303 22.584 74.1423 22.856C73.6623 23.128 73.0863 23.264 72.4143 23.264C71.5183 23.264 70.7743 23.052 70.1823 22.628C69.5903 22.212 69.2543 21.644 69.1743 20.924H70.5303C70.6343 21.268 70.8543 21.544 71.1903 21.752C71.5343 21.968 71.9423 22.076 72.4143 22.076C72.9663 22.076 73.4103 21.908 73.7463 21.572C74.0903 21.236 74.2623 20.748 74.2623 20.108V19.004C74.0303 19.316 73.7143 19.58 73.3143 19.796C72.9223 20.004 72.4743 20.108 71.9703 20.108C71.3943 20.108 70.8663 19.964 70.3863 19.676C69.9143 19.38 69.5383 18.972 69.2583 18.452C68.9863 17.924 68.8503 17.328 68.8503 16.664C68.8503 16 68.9863 15.412 69.2583 14.9C69.5383 14.388 69.9143 13.992 70.3863 13.712C70.8663 13.424 71.3943 13.28 71.9703 13.28ZM74.2623 16.688C74.2623 16.232 74.1663 15.836 73.9743 15.5C73.7903 15.164 73.5463 14.908 73.2423 14.732C72.9383 14.556 72.6103 14.468 72.2583 14.468C71.9063 14.468 71.5783 14.556 71.2743 14.732C70.9703 14.9 70.7223 15.152 70.5303 15.488C70.3463 15.816 70.2543 16.208 70.2543 16.664C70.2543 17.12 70.3463 17.52 70.5303 17.864C70.7223 18.208 70.9703 18.472 71.2743 18.656C71.5863 18.832 71.9143 18.92 72.2583 18.92C72.6103 18.92 72.9383 18.832 73.2423 18.656C73.5463 18.48 73.7903 18.224 73.9743 17.888C74.1663 17.544 74.2623 17.144 74.2623 16.688ZM80.7751 13.28C81.2951 13.28 81.7591 13.388 82.1671 13.604C82.5831 13.82 82.9071 14.14 83.1391 14.564C83.3711 14.988 83.4871 15.5 83.4871 16.1V20H82.1311V16.304C82.1311 15.712 81.9831 15.26 81.6871 14.948C81.3911 14.628 80.9871 14.468 80.4751 14.468C79.9631 14.468 79.5551 14.628 79.2511 14.948C78.9551 15.26 78.8071 15.712 78.8071 16.304V20H77.4391V13.388H78.8071V14.144C79.0311 13.872 79.3151 13.66 79.6591 13.508C80.0111 13.356 80.3831 13.28 80.7751 13.28ZM89.0452 12.512C88.7972 12.512 88.5892 12.428 88.4212 12.26C88.2532 12.092 88.1692 11.884 88.1692 11.636C88.1692 11.388 88.2532 11.18 88.4212 11.012C88.5892 10.844 88.7972 10.76 89.0452 10.76C89.2852 10.76 89.4892 10.844 89.6572 11.012C89.8252 11.18 89.9092 11.388 89.9092 11.636C89.9092 11.884 89.8252 12.092 89.6572 12.26C89.4892 12.428 89.2852 12.512 89.0452 12.512ZM89.7172 13.388V20H88.3492V13.388H89.7172ZM94.8493 13.28C95.3693 13.28 95.8333 13.388 96.2413 13.604C96.6573 13.82 96.9813 14.14 97.2133 14.564C97.4453 14.988 97.5613 15.5 97.5613 16.1V20H96.2053V16.304C96.2053 15.712 96.0573 15.26 95.7613 14.948C95.4653 14.628 95.0613 14.468 94.5493 14.468C94.0373 14.468 93.6293 14.628 93.3253 14.948C93.0293 15.26 92.8813 15.712 92.8813 16.304V20H91.5133V13.388H92.8813V14.144C93.1053 13.872 93.3893 13.66 93.7333 13.508C94.0853 13.356 94.4573 13.28 94.8493 13.28ZM111.303 13.388L109.251 20H107.811L106.479 15.116L105.147 20H103.707L101.643 13.388H103.035L104.415 18.704L105.819 13.388H107.247L108.591 18.68L109.959 13.388H111.303ZM113.022 12.512C112.774 12.512 112.566 12.428 112.398 12.26C112.23 12.092 112.146 11.884 112.146 11.636C112.146 11.388 112.23 11.18 112.398 11.012C112.566 10.844 112.774 10.76 113.022 10.76C113.262 10.76 113.466 10.844 113.634 11.012C113.802 11.18 113.886 11.388 113.886 11.636C113.886 11.884 113.802 12.092 113.634 12.26C113.466 12.428 113.262 12.512 113.022 12.512ZM113.694 13.388V20H112.326V13.388H113.694ZM117.086 14.504V18.164C117.086 18.412 117.142 18.592 117.254 18.704C117.374 18.808 117.574 18.86 117.854 18.86H118.694V20H117.614C116.998 20 116.526 19.856 116.198 19.568C115.87 19.28 115.706 18.812 115.706 18.164V14.504H114.926V13.388H115.706V11.744H117.086V13.388H118.694V14.504H117.086ZM123.375 13.28C123.879 13.28 124.327 13.388 124.719 13.604C125.119 13.82 125.431 14.14 125.655 14.564C125.887 14.988 126.003 15.5 126.003 16.1V20H124.647V16.304C124.647 15.712 124.499 15.26 124.203 14.948C123.907 14.628 123.503 14.468 122.991 14.468C122.479 14.468 122.071 14.628 121.767 14.948C121.471 15.26 121.323 15.712 121.323 16.304V20H119.955V11.12H121.323V14.156C121.555 13.876 121.847 13.66 122.199 13.508C122.559 13.356 122.951 13.28 123.375 13.28ZM135.893 18.296H132.401L131.801 20H130.373L133.361 11.648H134.945L137.933 20H136.493L135.893 18.296ZM135.509 17.18L134.153 13.304L132.785 17.18H135.509ZM140.6 14.36C140.832 14.056 141.148 13.8 141.548 13.592C141.948 13.384 142.4 13.28 142.904 13.28C143.48 13.28 144.004 13.424 144.476 13.712C144.956 13.992 145.332 14.388 145.604 14.9C145.876 15.412 146.012 16 146.012 16.664C146.012 17.328 145.876 17.924 145.604 18.452C145.332 18.972 144.956 19.38 144.476 19.676C144.004 19.964 143.48 20.108 142.904 20.108C142.4 20.108 141.952 20.008 141.56 19.808C141.168 19.6 140.848 19.344 140.6 19.04V23.144H139.232V13.388H140.6V14.36ZM144.62 16.664C144.62 16.208 144.524 15.816 144.332 15.488C144.148 15.152 143.9 14.9 143.588 14.732C143.284 14.556 142.956 14.468 142.604 14.468C142.26 14.468 141.932 14.556 141.62 14.732C141.316 14.908 141.068 15.164 140.876 15.5C140.692 15.836 140.6 16.232 140.6 16.688C140.6 17.144 140.692 17.544 140.876 17.888C141.068 18.224 141.316 18.48 141.62 18.656C141.932 18.832 142.26 18.92 142.604 18.92C142.956 18.92 143.284 18.832 143.588 18.656C143.9 18.472 144.148 18.208 144.332 17.864C144.524 17.52 144.62 17.12 144.62 16.664ZM148.733 14.36C148.965 14.056 149.281 13.8 149.681 13.592C150.081 13.384 150.533 13.28 151.037 13.28C151.613 13.28 152.137 13.424 152.609 13.712C153.089 13.992 153.465 14.388 153.737 14.9C154.009 15.412 154.145 16 154.145 16.664C154.145 17.328 154.009 17.924 153.737 18.452C153.465 18.972 153.089 19.38 152.609 19.676C152.137 19.964 151.613 20.108 151.037 20.108C150.533 20.108 150.085 20.008 149.693 19.808C149.301 19.6 148.981 19.344 148.733 19.04V23.144H147.365V13.388H148.733V14.36ZM152.753 16.664C152.753 16.208 152.657 15.816 152.465 15.488C152.281 15.152 152.033 14.9 151.721 14.732C151.417 14.556 151.089 14.468 150.737 14.468C150.393 14.468 150.065 14.556 149.753 14.732C149.449 14.908 149.201 15.164 149.009 15.5C148.825 15.836 148.733 16.232 148.733 16.688C148.733 17.144 148.825 17.544 149.009 17.888C149.201 18.224 149.449 18.48 149.753 18.656C150.065 18.832 150.393 18.92 150.737 18.92C151.089 18.92 151.417 18.832 151.721 18.656C152.033 18.472 152.281 18.208 152.465 17.864C152.657 17.52 152.753 17.12 152.753 16.664ZM156.866 11.12V20H155.498V11.12H156.866ZM164.722 16.532C164.722 16.78 164.706 17.004 164.674 17.204H159.622C159.662 17.732 159.858 18.156 160.21 18.476C160.562 18.796 160.994 18.956 161.506 18.956C162.242 18.956 162.762 18.648 163.066 18.032H164.542C164.342 18.64 163.978 19.14 163.45 19.532C162.93 19.916 162.282 20.108 161.506 20.108C160.874 20.108 160.306 19.968 159.802 19.688C159.306 19.4 158.914 19 158.626 18.488C158.346 17.968 158.206 17.368 158.206 16.688C158.206 16.008 158.342 15.412 158.614 14.9C158.894 14.38 159.282 13.98 159.778 13.7C160.282 13.42 160.858 13.28 161.506 13.28C162.13 13.28 162.686 13.416 163.174 13.688C163.662 13.96 164.042 14.344 164.314 14.84C164.586 15.328 164.722 15.892 164.722 16.532ZM163.294 16.1C163.286 15.596 163.106 15.192 162.754 14.888C162.402 14.584 161.966 14.432 161.446 14.432C160.974 14.432 160.57 14.584 160.234 14.888C159.898 15.184 159.698 15.588 159.634 16.1H163.294Z" fill="black"/>
<defs>
<clipPath id="clip0_218_1420">
<rect width="24" height="24" fill="white" transform="translate(24 4)"/>
</clipPath>
</defs>
</svg>
