<svg width="190" height="32" viewBox="0 0 190 32" fill="none" xmlns="http://www.w3.org/2000/svg">
<rect x="0.5" y="0.5" width="189" height="31" rx="9.5" stroke="#D9D9D9"/>
<path d="M41.8055 14.0415H41V14H32V18H37.6515C36.827 20.3285 34.6115 22 32 22C28.6865 22 26 19.3135 26 16C26 12.6865 28.6865 10 32 10C33.5295 10 34.921 10.577 35.9805 11.5195L38.809 8.691C37.023 7.0265 34.634 6 32 6C26.4775 6 22 10.4775 22 16C22 21.5225 26.4775 26 32 26C37.5225 26 42 21.5225 42 16C42 15.3295 41.931 14.675 41.8055 14.0415Z" fill="#FFC107"/>
<path d="M23.1528 11.3455L26.4383 13.755C27.3273 11.554 29.4803 10 31.9998 10C33.5293 10 34.9208 10.577 35.9803 11.5195L38.8088 8.691C37.0228 7.0265 34.6338 6 31.9998 6C28.1588 6 24.8278 8.1685 23.1528 11.3455Z" fill="#FF3D00"/>
<path d="M32.0002 26C34.5832 26 36.9302 25.0115 38.7047 23.404L35.6097 20.785C34.6057 21.5455 33.3577 22 32.0002 22C29.3992 22 27.1907 20.3415 26.3587 18.027L23.0977 20.5395C24.7527 23.778 28.1137 26 32.0002 26Z" fill="#4CAF50"/>
<path d="M41.8055 14.0415H41V14H32V18H37.6515C37.2555 19.1185 36.536 20.083 35.608 20.7855L35.6095 20.7845L38.7045 23.4035C38.4855 23.6025 42 21 42 16C42 15.3295 41.931 14.675 41.8055 14.0415Z" fill="#1976D2"/>
<path d="M57.648 20.084C57.088 20.084 56.584 19.988 56.136 19.796C55.688 19.596 55.336 19.316 55.08 18.956C54.824 18.596 54.696 18.176 54.696 17.696H56.16C56.192 18.056 56.332 18.352 56.58 18.584C56.836 18.816 57.192 18.932 57.648 18.932C58.12 18.932 58.488 18.82 58.752 18.596C59.016 18.364 59.148 18.068 59.148 17.708C59.148 17.428 59.064 17.2 58.896 17.024C58.736 16.848 58.532 16.712 58.284 16.616C58.044 16.52 57.708 16.416 57.276 16.304C56.732 16.16 56.288 16.016 55.944 15.872C55.608 15.72 55.32 15.488 55.08 15.176C54.84 14.864 54.72 14.448 54.72 13.928C54.72 13.448 54.84 13.028 55.08 12.668C55.32 12.308 55.656 12.032 56.088 11.84C56.52 11.648 57.02 11.552 57.588 11.552C58.396 11.552 59.056 11.756 59.568 12.164C60.088 12.564 60.376 13.116 60.432 13.82H58.92C58.896 13.516 58.752 13.256 58.488 13.04C58.224 12.824 57.876 12.716 57.444 12.716C57.052 12.716 56.732 12.816 56.484 13.016C56.236 13.216 56.112 13.504 56.112 13.88C56.112 14.136 56.188 14.348 56.34 14.516C56.5 14.676 56.7 14.804 56.94 14.9C57.18 14.996 57.508 15.1 57.924 15.212C58.476 15.364 58.924 15.516 59.268 15.668C59.62 15.82 59.916 16.056 60.156 16.376C60.404 16.688 60.528 17.108 60.528 17.636C60.528 18.06 60.412 18.46 60.18 18.836C59.956 19.212 59.624 19.516 59.184 19.748C58.752 19.972 58.24 20.084 57.648 20.084ZM62.8382 12.512C62.5902 12.512 62.3822 12.428 62.2142 12.26C62.0462 12.092 61.9622 11.884 61.9622 11.636C61.9622 11.388 62.0462 11.18 62.2142 11.012C62.3822 10.844 62.5902 10.76 62.8382 10.76C63.0782 10.76 63.2822 10.844 63.4502 11.012C63.6182 11.18 63.7022 11.388 63.7022 11.636C63.7022 11.884 63.6182 12.092 63.4502 12.26C63.2822 12.428 63.0782 12.512 62.8382 12.512ZM63.5102 13.388V20H62.1422V13.388H63.5102ZM67.9703 13.28C68.4823 13.28 68.9343 13.384 69.3263 13.592C69.7263 13.792 70.0383 14.044 70.2623 14.348V13.388H71.6423V20.108C71.6423 20.716 71.5143 21.256 71.2583 21.728C71.0023 22.208 70.6303 22.584 70.1423 22.856C69.6623 23.128 69.0863 23.264 68.4143 23.264C67.5183 23.264 66.7743 23.052 66.1823 22.628C65.5903 22.212 65.2543 21.644 65.1743 20.924H66.5303C66.6343 21.268 66.8543 21.544 67.1903 21.752C67.5343 21.968 67.9423 22.076 68.4143 22.076C68.9663 22.076 69.4103 21.908 69.7463 21.572C70.0903 21.236 70.2623 20.748 70.2623 20.108V19.004C70.0303 19.316 69.7143 19.58 69.3143 19.796C68.9223 20.004 68.4743 20.108 67.9703 20.108C67.3943 20.108 66.8663 19.964 66.3863 19.676C65.9143 19.38 65.5383 18.972 65.2583 18.452C64.9863 17.924 64.8503 17.328 64.8503 16.664C64.8503 16 64.9863 15.412 65.2583 14.9C65.5383 14.388 65.9143 13.992 66.3863 13.712C66.8663 13.424 67.3943 13.28 67.9703 13.28ZM70.2623 16.688C70.2623 16.232 70.1663 15.836 69.9743 15.5C69.7903 15.164 69.5463 14.908 69.2423 14.732C68.9383 14.556 68.6103 14.468 68.2583 14.468C67.9063 14.468 67.5783 14.556 67.2743 14.732C66.9703 14.9 66.7223 15.152 66.5303 15.488C66.3463 15.816 66.2543 16.208 66.2543 16.664C66.2543 17.12 66.3463 17.52 66.5303 17.864C66.7223 18.208 66.9703 18.472 67.2743 18.656C67.5863 18.832 67.9143 18.92 68.2583 18.92C68.6103 18.92 68.9383 18.832 69.2423 18.656C69.5463 18.48 69.7903 18.224 69.9743 17.888C70.1663 17.544 70.2623 17.144 70.2623 16.688ZM76.7751 13.28C77.2951 13.28 77.7591 13.388 78.1671 13.604C78.5831 13.82 78.9071 14.14 79.1391 14.564C79.3711 14.988 79.4871 15.5 79.4871 16.1V20H78.1311V16.304C78.1311 15.712 77.9831 15.26 77.6871 14.948C77.3911 14.628 76.9871 14.468 76.4751 14.468C75.9631 14.468 75.5551 14.628 75.2511 14.948C74.9551 15.26 74.8071 15.712 74.8071 16.304V20H73.4391V13.388H74.8071V14.144C75.0311 13.872 75.3151 13.66 75.6591 13.508C76.0111 13.356 76.3831 13.28 76.7751 13.28ZM85.0452 12.512C84.7972 12.512 84.5892 12.428 84.4212 12.26C84.2532 12.092 84.1692 11.884 84.1692 11.636C84.1692 11.388 84.2532 11.18 84.4212 11.012C84.5892 10.844 84.7972 10.76 85.0452 10.76C85.2852 10.76 85.4892 10.844 85.6572 11.012C85.8252 11.18 85.9092 11.388 85.9092 11.636C85.9092 11.884 85.8252 12.092 85.6572 12.26C85.4892 12.428 85.2852 12.512 85.0452 12.512ZM85.7172 13.388V20H84.3492V13.388H85.7172ZM90.8493 13.28C91.3693 13.28 91.8333 13.388 92.2413 13.604C92.6573 13.82 92.9813 14.14 93.2133 14.564C93.4453 14.988 93.5613 15.5 93.5613 16.1V20H92.2053V16.304C92.2053 15.712 92.0573 15.26 91.7613 14.948C91.4653 14.628 91.0613 14.468 90.5493 14.468C90.0373 14.468 89.6293 14.628 89.3253 14.948C89.0293 15.26 88.8813 15.712 88.8813 16.304V20H87.5133V13.388H88.8813V14.144C89.1053 13.872 89.3893 13.66 89.7333 13.508C90.0853 13.356 90.4573 13.28 90.8493 13.28ZM107.303 13.388L105.251 20H103.811L102.479 15.116L101.147 20H99.7074L97.6434 13.388H99.0354L100.415 18.704L101.819 13.388H103.247L104.591 18.68L105.959 13.388H107.303ZM109.022 12.512C108.774 12.512 108.566 12.428 108.398 12.26C108.23 12.092 108.146 11.884 108.146 11.636C108.146 11.388 108.23 11.18 108.398 11.012C108.566 10.844 108.774 10.76 109.022 10.76C109.262 10.76 109.466 10.844 109.634 11.012C109.802 11.18 109.886 11.388 109.886 11.636C109.886 11.884 109.802 12.092 109.634 12.26C109.466 12.428 109.262 12.512 109.022 12.512ZM109.694 13.388V20H108.326V13.388H109.694ZM113.086 14.504V18.164C113.086 18.412 113.142 18.592 113.254 18.704C113.374 18.808 113.574 18.86 113.854 18.86H114.694V20H113.614C112.998 20 112.526 19.856 112.198 19.568C111.87 19.28 111.706 18.812 111.706 18.164V14.504H110.926V13.388H111.706V11.744H113.086V13.388H114.694V14.504H113.086ZM119.375 13.28C119.879 13.28 120.327 13.388 120.719 13.604C121.119 13.82 121.431 14.14 121.655 14.564C121.887 14.988 122.003 15.5 122.003 16.1V20H120.647V16.304C120.647 15.712 120.499 15.26 120.203 14.948C119.907 14.628 119.503 14.468 118.991 14.468C118.479 14.468 118.071 14.628 117.767 14.948C117.471 15.26 117.323 15.712 117.323 16.304V20H115.955V11.12H117.323V14.156C117.555 13.876 117.847 13.66 118.199 13.508C118.559 13.356 118.951 13.28 119.375 13.28ZM132.901 14.06C132.685 13.644 132.385 13.332 132.001 13.124C131.617 12.908 131.173 12.8 130.669 12.8C130.117 12.8 129.625 12.924 129.193 13.172C128.761 13.42 128.421 13.772 128.173 14.228C127.933 14.684 127.813 15.212 127.813 15.812C127.813 16.412 127.933 16.944 128.173 17.408C128.421 17.864 128.761 18.216 129.193 18.464C129.625 18.712 130.117 18.836 130.669 18.836C131.413 18.836 132.017 18.628 132.481 18.212C132.945 17.796 133.229 17.232 133.333 16.52H130.201V15.428H134.797V16.496C134.709 17.144 134.477 17.74 134.101 18.284C133.733 18.828 133.249 19.264 132.649 19.592C132.057 19.912 131.397 20.072 130.669 20.072C129.885 20.072 129.169 19.892 128.521 19.532C127.873 19.164 127.357 18.656 126.973 18.008C126.597 17.36 126.409 16.628 126.409 15.812C126.409 14.996 126.597 14.264 126.973 13.616C127.357 12.968 127.873 12.464 128.521 12.104C129.177 11.736 129.893 11.552 130.669 11.552C131.557 11.552 132.345 11.772 133.033 12.212C133.729 12.644 134.233 13.26 134.545 14.06H132.901ZM139.014 20.108C138.39 20.108 137.826 19.968 137.322 19.688C136.818 19.4 136.422 19 136.134 18.488C135.846 17.968 135.702 17.368 135.702 16.688C135.702 16.016 135.85 15.42 136.146 14.9C136.442 14.38 136.846 13.98 137.358 13.7C137.87 13.42 138.442 13.28 139.074 13.28C139.706 13.28 140.278 13.42 140.79 13.7C141.302 13.98 141.706 14.38 142.002 14.9C142.298 15.42 142.446 16.016 142.446 16.688C142.446 17.36 142.294 17.956 141.99 18.476C141.686 18.996 141.27 19.4 140.742 19.688C140.222 19.968 139.646 20.108 139.014 20.108ZM139.014 18.92C139.366 18.92 139.694 18.836 139.998 18.668C140.31 18.5 140.562 18.248 140.754 17.912C140.946 17.576 141.042 17.168 141.042 16.688C141.042 16.208 140.95 15.804 140.766 15.476C140.582 15.14 140.338 14.888 140.034 14.72C139.73 14.552 139.402 14.468 139.05 14.468C138.698 14.468 138.37 14.552 138.066 14.72C137.77 14.888 137.534 15.14 137.358 15.476C137.182 15.804 137.094 16.208 137.094 16.688C137.094 17.4 137.274 17.952 137.634 18.344C138.002 18.728 138.462 18.92 139.014 18.92ZM146.666 20.108C146.042 20.108 145.478 19.968 144.974 19.688C144.47 19.4 144.074 19 143.786 18.488C143.498 17.968 143.354 17.368 143.354 16.688C143.354 16.016 143.502 15.42 143.798 14.9C144.094 14.38 144.498 13.98 145.01 13.7C145.522 13.42 146.094 13.28 146.726 13.28C147.358 13.28 147.93 13.42 148.442 13.7C148.954 13.98 149.358 14.38 149.654 14.9C149.95 15.42 150.098 16.016 150.098 16.688C150.098 17.36 149.946 17.956 149.642 18.476C149.338 18.996 148.922 19.4 148.394 19.688C147.874 19.968 147.298 20.108 146.666 20.108ZM146.666 18.92C147.018 18.92 147.346 18.836 147.65 18.668C147.962 18.5 148.214 18.248 148.406 17.912C148.598 17.576 148.694 17.168 148.694 16.688C148.694 16.208 148.602 15.804 148.418 15.476C148.234 15.14 147.99 14.888 147.686 14.72C147.382 14.552 147.054 14.468 146.702 14.468C146.35 14.468 146.022 14.552 145.718 14.72C145.422 14.888 145.186 15.14 145.01 15.476C144.834 15.804 144.746 16.208 144.746 16.688C144.746 17.4 144.926 17.952 145.286 18.344C145.654 18.728 146.114 18.92 146.666 18.92ZM154.115 13.28C154.627 13.28 155.079 13.384 155.471 13.592C155.871 13.792 156.183 14.044 156.407 14.348V13.388H157.787V20.108C157.787 20.716 157.659 21.256 157.403 21.728C157.147 22.208 156.775 22.584 156.287 22.856C155.807 23.128 155.231 23.264 154.559 23.264C153.663 23.264 152.919 23.052 152.327 22.628C151.735 22.212 151.399 21.644 151.319 20.924H152.675C152.779 21.268 152.999 21.544 153.335 21.752C153.679 21.968 154.087 22.076 154.559 22.076C155.111 22.076 155.555 21.908 155.891 21.572C156.235 21.236 156.407 20.748 156.407 20.108V19.004C156.175 19.316 155.859 19.58 155.459 19.796C155.067 20.004 154.619 20.108 154.115 20.108C153.539 20.108 153.011 19.964 152.531 19.676C152.059 19.38 151.683 18.972 151.403 18.452C151.131 17.924 150.995 17.328 150.995 16.664C150.995 16 151.131 15.412 151.403 14.9C151.683 14.388 152.059 13.992 152.531 13.712C153.011 13.424 153.539 13.28 154.115 13.28ZM156.407 16.688C156.407 16.232 156.311 15.836 156.119 15.5C155.935 15.164 155.691 14.908 155.387 14.732C155.083 14.556 154.755 14.468 154.403 14.468C154.051 14.468 153.723 14.556 153.419 14.732C153.115 14.9 152.867 15.152 152.675 15.488C152.491 15.816 152.399 16.208 152.399 16.664C152.399 17.12 152.491 17.52 152.675 17.864C152.867 18.208 153.115 18.472 153.419 18.656C153.731 18.832 154.059 18.92 154.403 18.92C154.755 18.92 155.083 18.832 155.387 18.656C155.691 18.48 155.935 18.224 156.119 17.888C156.311 17.544 156.407 17.144 156.407 16.688ZM160.952 11.12V20H159.584V11.12H160.952ZM168.808 16.532C168.808 16.78 168.792 17.004 168.76 17.204H163.708C163.748 17.732 163.944 18.156 164.296 18.476C164.648 18.796 165.08 18.956 165.592 18.956C166.328 18.956 166.848 18.648 167.152 18.032H168.628C168.428 18.64 168.064 19.14 167.536 19.532C167.016 19.916 166.368 20.108 165.592 20.108C164.96 20.108 164.392 19.968 163.888 19.688C163.392 19.4 163 19 162.712 18.488C162.432 17.968 162.292 17.368 162.292 16.688C162.292 16.008 162.428 15.412 162.7 14.9C162.98 14.38 163.368 13.98 163.864 13.7C164.368 13.42 164.944 13.28 165.592 13.28C166.216 13.28 166.772 13.416 167.26 13.688C167.748 13.96 168.128 14.344 168.4 14.84C168.672 15.328 168.808 15.892 168.808 16.532ZM167.38 16.1C167.372 15.596 167.192 15.192 166.84 14.888C166.488 14.584 166.052 14.432 165.532 14.432C165.06 14.432 164.656 14.584 164.32 14.888C163.984 15.184 163.784 15.588 163.72 16.1H167.38Z" fill="black"/>
</svg>
