<svg width="20" height="16" viewBox="0 0 20 16" fill="none" xmlns="http://www.w3.org/2000/svg">
<path fill-rule="evenodd" clip-rule="evenodd" d="M10 0.861938C4.47727 0.861938 0 4.24403 0 8.41585C0 12.5877 4.47727 15.9698 10 15.9698C15.5227 15.9698 20 12.5877 20 8.41585C20 4.24403 15.5227 0.861938 10 0.861938ZM13.37 6.8412C13.5356 6.71169 13.6272 6.53822 13.6252 6.35816C13.6231 6.17811 13.5275 6.00587 13.3589 5.87855C13.1904 5.75122 12.9624 5.679 12.724 5.67744C12.4856 5.67587 12.256 5.74509 12.0845 5.87018L10 7.44483L7.91545 5.87018C7.83159 5.80459 7.73128 5.75228 7.62037 5.71629C7.50946 5.6803 7.39016 5.66135 7.26946 5.66056C7.14875 5.65977 7.02904 5.67714 6.91731 5.71167C6.80559 5.7462 6.70409 5.79719 6.61873 5.86167C6.53338 5.92615 6.46587 6.00282 6.42016 6.08722C6.37445 6.17161 6.35145 6.26204 6.3525 6.35322C6.35355 6.4444 6.37863 6.53451 6.42627 6.6183C6.47392 6.70208 6.54317 6.77785 6.63 6.8412L8.71455 8.41585L6.63 9.9905C6.54317 10.0538 6.47392 10.1296 6.42627 10.2134C6.37863 10.2972 6.35355 10.3873 6.3525 10.4785C6.35145 10.5697 6.37445 10.6601 6.42016 10.7445C6.46587 10.8289 6.53338 10.9056 6.61873 10.97C6.70409 11.0345 6.80559 11.0855 6.91731 11.12C7.02904 11.1546 7.14875 11.1719 7.26946 11.1711C7.39016 11.1703 7.50946 11.1514 7.62037 11.1154C7.73128 11.0794 7.83159 11.0271 7.91545 10.9615L10 9.38687L12.0845 10.9615C12.256 11.0866 12.4856 11.1558 12.724 11.1543C12.9624 11.1527 13.1904 11.0805 13.3589 10.9532C13.5275 10.8258 13.6231 10.6536 13.6252 10.4735C13.6272 10.2935 13.5356 10.12 13.37 9.9905L11.2855 8.41585L13.37 6.8412Z" fill="#9F9F9F"/>
</svg>
