<svg width="61" height="60" viewBox="0 0 61 60" fill="none" xmlns="http://www.w3.org/2000/svg">
<path d="M57.1193 21.2612C56.3275 18.8096 56.6651 15.1296 54.6072 12.2881C52.5333 9.42431 48.9261 8.61033 46.8893 7.12064C44.8739 5.64666 42.9989 2.43912 39.6088 1.33287C36.3143 0.257791 32.9454 1.71666 30.3333 1.71666C27.7215 1.71666 24.3528 0.257439 21.0577 1.33275C17.6682 2.43877 15.7917 5.64701 13.7776 7.12029C11.743 8.60822 8.13313 9.42443 6.0595 12.2878C4.00345 15.1269 4.33755 18.8154 3.54724 21.2611C2.79513 23.5888 0.333252 26.3824 0.333252 30.0002C0.333252 33.6203 2.79231 36.4031 3.54724 38.7392C4.33895 41.1908 4.00146 44.8708 6.05927 47.7123C8.13313 50.5762 11.7402 51.3901 13.7772 52.8799C15.7923 54.3536 17.6676 57.5614 21.0577 58.6676C24.35 59.7419 27.7242 58.2838 30.3333 58.2838C32.9387 58.2838 36.3207 59.7404 39.6088 58.6677C42.9984 57.5617 44.8738 54.3541 46.8889 52.8801C48.9235 51.3922 52.5334 50.576 54.607 47.7126C56.6632 44.8734 56.3288 41.1853 57.1193 38.7394C57.8714 36.4115 60.3333 33.6179 60.3333 30.0002C60.3333 26.3804 57.8748 23.5984 57.1193 21.2612ZM52.659 37.2979C51.7361 40.1544 51.9779 43.3512 50.8107 44.9629C49.6278 46.5962 46.5201 47.3422 44.1221 49.0963C41.7504 50.8308 40.0881 53.5803 38.1547 54.2111C36.3256 54.8081 33.3449 53.596 30.3334 53.596C27.2999 53.596 24.3498 54.8107 22.5119 54.2111C20.5788 53.5803 18.9188 50.8326 16.5445 49.0962C14.1607 47.3528 11.0353 46.5914 9.85579 44.9627C8.69235 43.3563 8.92497 40.1374 8.00774 37.2981C7.10868 34.5162 5.02075 32.1074 5.02075 30.0002C5.02075 27.891 7.10681 25.4905 8.00751 22.7025C8.93036 19.8461 8.6886 16.6492 9.85579 15.0375C11.038 13.4053 14.148 12.6568 16.5445 10.9042C18.9238 9.16404 20.5756 6.42103 22.5117 5.78928C24.3392 5.19303 27.3297 6.40439 30.3331 6.40439C33.3722 6.40439 36.3149 5.18892 38.1546 5.78928C40.0875 6.41998 41.7488 9.16873 44.1221 10.9043C46.5056 12.6477 49.6312 13.409 50.8107 15.0376C51.9744 16.6444 51.7405 19.86 52.6588 22.7022V22.7024C53.5578 25.4843 55.6458 27.8931 55.6458 30.0002C55.6458 32.1095 53.5597 34.5099 52.659 37.2979ZM41.1313 22.4774C42.0466 23.3927 42.0466 24.8767 41.1313 25.7919L29.4001 37.5231C28.4847 38.4384 27.0007 38.4383 26.0854 37.5231L19.5354 30.973C18.62 30.0576 18.6199 28.5737 19.5352 27.6585C20.4506 26.7432 21.9348 26.7431 22.8498 27.6585L27.7427 32.5513L37.8165 22.4775C38.7318 21.5621 40.2159 21.5621 41.1313 22.4774Z" fill="#242424"/>
</svg>
